<?xml version="1.0" encoding="UTF-8"?>
<svg id="Layer_1" data-name="Layer 1" xmlns="http://www.w3.org/2000/svg" version="1.1" viewBox="0 0 352.7 168.8">
  <defs>
    <style>
      .cls-1 {
        fill: #0d0a11;
      }

      .cls-1, .cls-2, .cls-3, .cls-4 {
        stroke-width: 0px;
      }

      .cls-5 {
        fill: #000;
        font-family: KohinoorArabic-Regular, 'Kohinoor Arabic';
        font-size: 7.7px;
      }

      .cls-6 {
        fill: #d8c4d5;
        stroke: #eec5dd;
        stroke-width: .8px;
      }

      .cls-7 {
        stroke: #bc91ac;
      }

      .cls-7, .cls-8, .cls-9, .cls-10, .cls-11 {
        fill: none;
      }

      .cls-7, .cls-8, .cls-9, .cls-11 {
        stroke-width: 2px;
      }

      .cls-7, .cls-11 {
        stroke-miterlimit: 10;
      }

      .cls-2 {
        fill: #d3d3d3;
      }

      .cls-8 {
        stroke: #cfb8d1;
      }

      .cls-3 {
        fill: #bc91ac;
      }

      .cls-9 {
        stroke: #ca92c1;
      }

      .cls-10 {
        stroke: #010101;
        stroke-linejoin: round;
        stroke-width: 1.1px;
      }

      .cls-12, .cls-13 {
        isolation: isolate;
      }

      .cls-11 {
        stroke: #0d0a11;
      }

      .cls-4 {
        fill: #231f20;
      }

      .cls-13 {
        fill: #010101;
        font-family: MyriadPro-Bold, 'Myriad Pro';
        font-size: 9.9px;
        font-weight: 700;
      }
    </style>
  </defs>
  <g>
    <rect class="cls-2" x="34.4" y="63.2" width="16.9" height="56.4"/>
    <rect class="cls-2" x="58.5" y="61.5" width="16.9" height="58.1"/>
    <rect class="cls-2" x="82.6" y="91.7" width="16.9" height="28"/>
    <rect class="cls-2" x="106.7" y="34.5" width="16.9" height="85.2"/>
    <rect class="cls-2" x="130.9" y="95.9" width="16.9" height="23.7"/>
    <rect class="cls-2" x="155" y="75.2" width="16.9" height="44.5"/>
    <rect class="cls-2" x="179.1" y="77.7" width="16.9" height="42"/>
    <rect class="cls-2" x="203.2" y="85.8" width="16.9" height="33.9"/>
    <rect class="cls-2" x="227.3" y="103.1" width="16.9" height="16.5"/>
    <rect class="cls-4" x="251.4" y="86.6" width="16.9" height="33.1"/>
    <rect class="cls-2" x="275.5" y="86.2" width="16.9" height="33.5"/>
    <rect class="cls-2" x="299.6" y="87.9" width="16.9" height="31.8"/>
    <line class="cls-10" x1="27.4" y1="119.7" x2="321.7" y2="119.7"/>
  </g>
  <g class="cls-12">
    <g class="cls-12">
      <g class="cls-12">
        <g class="cls-12">
          <text class="cls-13" transform="translate(107.9 32.9)"><tspan x="0" y="0">201</tspan></text>
        </g>
      </g>
    </g>
  </g>
  <g>
    <g>
      <path class="cls-8" d="M248.1,131.7h70.5c.1,0,2,.1,2.8-2.4.2-.8.3-1.5.4-2"/>
      <path class="cls-8" d="M248.2,131.7h-70.5c-.1,0-2-.1-2.8,2.4-.2.8-.3,1.5-.4,2"/>
    </g>
    <g>
      <path class="cls-8" d="M101,131.7H30.6c-.1,0-2,.1-2.8-2.4-.2-.8-.3-1.5-.4-2"/>
      <path class="cls-8" d="M101,131.7h70.5c.1,0,2-.1,2.8,2.4.2.8.3,1.5.4,2"/>
    </g>
  </g>
  <rect class="cls-6" x="169.7" y="139.2" width="24.8" height="9.2"/>
  <rect class="cls-6" x="173.2" y="13.9" width="26.3" height="12.6"/>
  <g>
    <line class="cls-11" x1="159.9" y1="144.7" x2="167.9" y2="144.7"/>
    <polygon class="cls-1" points="160.5 142.5 156.8 144.7 160.5 146.9 160.5 142.5"/>
  </g>
  <rect class="cls-6" x="217.6" y="64" width="34.7" height="10.5"/>
  <g>
    <line class="cls-11" x1="258.4" y1="59.4" x2="267" y2="59.4"/>
    <polygon class="cls-1" points="259.1 57.1 255.2 59.4 259.1 61.7 259.1 57.1"/>
  </g>
  <path class="cls-9" d="M130.9,24.8c-4.6-1.9-8.8-2.5-11.4-2.8-5-.5-9.6-.8-13.2,1.5-2.1,1.4-3.3,4-2.6,6.4,1.1,4,6.9,5.4,7.6,5.5,5.5,1.3,12.6-.4,15-4.4.3-.5,1.4-2.1.9-4-1-3.7-7.9-6.6-17-6.5"/>
  <g>
    <path class="cls-7" d="M264.2,91.1c3.5-1.9,8.2-5.6,10.8-12,2.5-6.1,1.6-11.6,1-14"/>
    <polygon class="cls-3" points="267.2 92.6 265 90.7 265 87.7 260.3 92.9 267.2 92.6"/>
  </g>
  <text class="cls-5" transform="translate(115.2 145.8)"><tspan x="0" y="0">12 </tspan><tspan x="9.1" y="0">ليطتسم</tspan><tspan x="39" y="0"> </tspan></text>
  <text class="cls-5" transform="translate(199.6 23.4)"><tspan x="0" y="0" xml:space="preserve"> كانه ناك</tspan></text>
  <text class="cls-5" transform="translate(193.3 145.8)"><tspan x="0" y="0" xml:space="preserve"> ةساردلا ترمتسا</tspan></text>
  <text class="cls-5" transform="translate(270.5 60.5)"><tspan x="0" y="0">نكادلا نوللا</tspan></text>
  <text class="cls-5" transform="translate(225.8 61.5)"><tspan x="0" y="0">اذه ناك</tspan><tspan x="24.7" y="0"> </tspan><tspan x="-9" y="9.2">ةلطع مويلا</tspan></text>
</svg>