<?xml version="1.0" encoding="UTF-8"?>
<svg id="Layer_1" data-name="Layer 1" xmlns="http://www.w3.org/2000/svg" version="1.1" viewBox="0 0 720 288">
  <defs>
    <style>
      .cls-1 {
        stroke: #05000c;
        stroke-miterlimit: 10;
      }

      .cls-1, .cls-2, .cls-3, .cls-4, .cls-5 {
        fill: none;
      }

      .cls-1, .cls-3 {
        stroke-width: 2px;
      }

      .cls-6 {
        font-family: MyriadPro-Bold, 'Myriad Pro';
        font-size: 18px;
      }

      .cls-6, .cls-7, .cls-8, .cls-9, .cls-10 {
        isolation: isolate;
      }

      .cls-6, .cls-8, .cls-9 {
        fill: #000;
      }

      .cls-6, .cls-11 {
        font-weight: 700;
      }

      .cls-12 {
        fill: #d9c4d5;
        stroke: #eec5dd;
        stroke-width: .8px;
      }

      .cls-13 {
        letter-spacing: 0em;
      }

      .cls-13, .cls-9, .cls-14 {
        font-family: SourceSansPro-Regular, 'Source Sans Pro';
      }

      .cls-7 {
        fill: #fff;
        font-family: ArialMT, Arial;
        font-size: 11.4px;
      }

      .cls-15 {
        fill: #05000c;
      }

      .cls-15, .cls-16, .cls-17, .cls-18 {
        stroke-width: 0px;
      }

      .cls-16 {
        fill: #d3d3d3;
      }

      .cls-2 {
        stroke: #000;
      }

      .cls-2, .cls-4, .cls-5 {
        stroke-linejoin: round;
      }

      .cls-2, .cls-5 {
        stroke-width: 1.1px;
      }

      .cls-8, .cls-9 {
        font-size: 14px;
      }

      .cls-3 {
        stroke: #b19aca;
      }

      .cls-4 {
        stroke-width: .5px;
      }

      .cls-4, .cls-5 {
        stroke: #fff;
      }

      .cls-11 {
        font-family: SourceSansPro-Bold, 'Source Sans Pro';
      }

      .cls-17 {
        fill: #b19aca;
      }

      .cls-18 {
        fill: #231f20;
      }
    </style>
  </defs>
  <g>
    <path class="cls-4" d="M720,297.4"/>
    <path class="cls-5" d="M720,374.6"/>
    <line class="cls-5" x1="2.7" y1="220.2" x2="720" y2="220.2"/>
    <rect class="cls-16" x="58.1" y="117.5" width="31" height="102.7"/>
    <rect class="cls-16" x="102.4" y="114.4" width="31" height="105.8"/>
    <rect class="cls-16" x="146.6" y="169.3" width="31" height="50.9"/>
    <rect class="cls-16" x="190.9" y="65.1" width="31" height="155.2"/>
    <rect class="cls-16" x="235.2" y="177" width="31" height="43.2"/>
    <rect class="cls-16" x="279.5" y="139.2" width="31" height="81.1"/>
    <rect class="cls-16" x="323.7" y="143.8" width="31" height="76.4"/>
    <rect class="cls-16" x="368" y="158.5" width="31" height="61.8"/>
    <rect class="cls-16" x="412.3" y="190.1" width="31" height="30.1"/>
    <rect class="cls-18" x="456.6" y="160" width="31" height="60.2"/>
    <rect class="cls-16" x="500.8" y="159.2" width="31" height="61"/>
    <rect class="cls-16" x="545.1" y="162.3" width="31" height="57.9"/>
    <g class="cls-10">
      <text class="cls-7" transform="translate(23 178)"><tspan x="0" y="0">52</tspan></text>
    </g>
    <g class="cls-10">
      <text class="cls-7" transform="translate(64.1 115.5)"><tspan x="0" y="0">133</tspan></text>
    </g>
    <g class="cls-10">
      <text class="cls-7" transform="translate(108.4 112.4)"><tspan x="0" y="0">137</tspan></text>
    </g>
    <g class="cls-10">
      <text class="cls-7" transform="translate(155.8 167.2)"><tspan x="0" y="0">66</tspan></text>
    </g>
    <g class="cls-10">
      <text class="cls-7" transform="translate(244.4 174.9)"><tspan x="0" y="0">56</tspan></text>
    </g>
    <g class="cls-10">
      <text class="cls-7" transform="translate(285.5 137.1)"><tspan x="0" y="0">105</tspan></text>
    </g>
    <g class="cls-10">
      <text class="cls-7" transform="translate(332.9 141.8)"><tspan x="0" y="0">99</tspan></text>
    </g>
    <g class="cls-10">
      <text class="cls-7" transform="translate(377.2 156.4)"><tspan x="0" y="0">80</tspan></text>
    </g>
    <g class="cls-10">
      <text class="cls-7" transform="translate(421.5 188.1)"><tspan x="0" y="0">39</tspan></text>
    </g>
    <g class="cls-10">
      <text class="cls-7" transform="translate(465.7 158)"><tspan x="0" y="0">78</tspan></text>
    </g>
    <g class="cls-10">
      <text class="cls-7" transform="translate(510 157.2)"><tspan x="0" y="0">79</tspan></text>
    </g>
    <g class="cls-10">
      <text class="cls-7" transform="translate(554.3 160.3)"><tspan x="0" y="0">75</tspan></text>
    </g>
    <line class="cls-2" x1="45.3" y1="220.2" x2="585.6" y2="220.2"/>
  </g>
  <g class="cls-10">
    <text class="cls-6" transform="translate(193 62.2)"><tspan x="0" y="0">201</tspan></text>
  </g>
  <g>
    <g>
      <path class="cls-3" d="M450.5,242.2h129.4c.2,0,3.6.2,5.1-4.4.4-1.4.6-2.7.7-3.7"/>
      <path class="cls-3" d="M450.6,242.2h-129.4c-.2,0-3.6-.2-5.1,4.4-.4,1.4-.6,2.7-.7,3.7"/>
    </g>
    <g>
      <path class="cls-3" d="M180.4,242.2H51.1c-.2,0-3.6.2-5.1-4.4-.4-1.4-.6-2.7-.7-3.7"/>
      <path class="cls-3" d="M180.3,242.2h129.4c.2,0,3.6-.2,5.1,4.4.4,1.4.6,2.7.7,3.7"/>
    </g>
  </g>
  <rect class="cls-12" x="351.5" y="250.3" width="51.3" height="16.8"/>
  <text class="cls-9" transform="translate(191.8 264.5)"><tspan x="0" y="0">12 Bars</tspan></text>
  <path class="cls-3" d="M465.2,159.7c-6.3-5.8-14-15.3-16.3-28.4-.8-4.6-2.2-12.4,1.9-20.6,6.5-13.1,21.7-16.1,23.9-16.5"/>
  <path class="cls-17" d="M472.4,165.4c-2.3-3.9-4.7-9.4-5.4-13.7l-2.5,7.2-6.6,3.9c4.4-.1,10.2,1.1,14.5,2.6Z"/>
  <path class="cls-3" d="M235.7,47.5c-8.5-3.4-16.1-4.6-21-5.1-9.1-.9-17.7-1.4-24.3,2.8-3.9,2.6-6,7.2-4.8,11.6,2,7.3,12.6,9.8,14,10.1,10.1,2.4,23.1-.8,27.6-8,.6-1,2.5-3.9,1.6-7.2-1.9-6.8-14.5-12.1-31.3-11.9"/>
  <rect class="cls-12" x="339.9" y="34" width="70.3" height="19.7"/>
  <text class="cls-9" transform="translate(238.5 48.6)"><tspan x="0" y="0">The team counted 201 visitors </tspan></text>
  <text class="cls-9" transform="translate(289.5 67.8)"><tspan x="0" y="0">on this day</tspan></text>
  <g>
    <line class="cls-1" x1="241.6" y1="260.3" x2="256.3" y2="260.3"/>
    <polygon class="cls-15" points="255.1 264.3 262 260.3 255.1 256.3 255.1 264.3"/>
  </g>
  <rect class="cls-12" x="552.3" y="92.1" width="49.8" height="19.2"/>
  <text class="cls-9" transform="translate(476 88.3)"><tspan x="0" y="0" xml:space="preserve">Dark colored bar         This day </tspan></text>
  <text class="cls-9" transform="translate(519.6 107.7)"><tspan x="0" y="0">was a holiday</tspan></text>
  <g>
    <line class="cls-1" x1="576.5" y1="84.2" x2="592.2" y2="84.2"/>
    <polygon class="cls-15" points="591 88.3 598.1 84.2 591 80.1 591 88.3"/>
  </g>
  <text class="cls-8" transform="translate(268.1 264.5)"><tspan class="cls-14" x="0" y="0" xml:space="preserve">The study last  </tspan><tspan class="cls-11" x="87.1" y="0" xml:space="preserve">12  </tspan><tspan class="cls-13" x="107.5" y="0">days</tspan></text>
</svg>