<?xml version="1.0" encoding="UTF-8"?>
<svg id="Layer_1" data-name="Layer 1" xmlns="http://www.w3.org/2000/svg" version="1.1" viewBox="0 0 720 288">
  <defs>
    <style>
      .cls-1 {
        stroke: #05000c;
        stroke-miterlimit: 10;
        stroke-width: 2px;
      }

      .cls-1, .cls-2, .cls-3, .cls-4, .cls-5 {
        fill: none;
      }

      .cls-6 {
        font-family: SourceSansPro-Regular, 'Source Sans Pro';
      }

      .cls-6, .cls-7, .cls-8 {
        fill: #000;
      }

      .cls-6, .cls-8 {
        font-size: 18px;
      }

      .cls-7 {
        font-size: 16px;
      }

      .cls-7, .cls-8 {
        font-family: MyriadPro-Regular, 'Myriad Pro';
      }

      .cls-9 {
        fill: #05000c;
      }

      .cls-9, .cls-10, .cls-11, .cls-12 {
        stroke-width: 0px;
      }

      .cls-2 {
        stroke: #b19aca;
      }

      .cls-13 {
        fill: #fff;
        font-family: ArialMT, Arial;
        font-size: 11.4px;
        isolation: isolate;
      }

      .cls-10 {
        fill: #d3d3d3;
      }

      .cls-3 {
        stroke-width: .5px;
      }

      .cls-3, .cls-4, .cls-5 {
        stroke-linejoin: round;
      }

      .cls-3, .cls-5 {
        stroke: #fff;
      }

      .cls-4 {
        stroke: #000;
      }

      .cls-4, .cls-5 {
        stroke-width: 1.1px;
      }

      .cls-11 {
        fill: #b19aca;
      }

      .cls-14 {
        fill: #d9c4d5;
        stroke: #eec5dd;
        stroke-width: .8px;
      }

      .cls-12 {
        fill: #231f20;
      }
    </style>
  </defs>
  <g>
    <path class="cls-3" d="M720,297.4"/>
    <path class="cls-5" d="M720,374.6"/>
    <line class="cls-5" x1="2.7" y1="220.2" x2="720" y2="220.2"/>
    <rect class="cls-10" x="58.1" y="117.5" width="31" height="102.7"/>
    <rect class="cls-10" x="102.4" y="114.4" width="31" height="105.8"/>
    <rect class="cls-10" x="146.6" y="169.3" width="31" height="50.9"/>
    <rect class="cls-10" x="190.9" y="65.1" width="31" height="155.2"/>
    <rect class="cls-10" x="235.2" y="177" width="31" height="43.2"/>
    <rect class="cls-10" x="279.5" y="139.2" width="31" height="81.1"/>
    <rect class="cls-10" x="323.7" y="143.8" width="31" height="76.4"/>
    <rect class="cls-10" x="368" y="158.5" width="31" height="61.8"/>
    <rect class="cls-10" x="412.3" y="190.1" width="31" height="30.1"/>
    <rect class="cls-12" x="456.6" y="160" width="31" height="60.2"/>
    <rect class="cls-10" x="500.8" y="159.2" width="31" height="61"/>
    <rect class="cls-10" x="545.1" y="162.3" width="31" height="57.9"/>
    <text class="cls-13" transform="translate(23 178)"><tspan x="0" y="0">52</tspan></text>
    <text class="cls-13" transform="translate(64.1 115.5)"><tspan x="0" y="0">133</tspan></text>
    <text class="cls-13" transform="translate(108.4 112.4)"><tspan x="0" y="0">137</tspan></text>
    <text class="cls-13" transform="translate(155.8 167.2)"><tspan x="0" y="0">66</tspan></text>
    <text class="cls-13" transform="translate(244.4 174.9)"><tspan x="0" y="0">56</tspan></text>
    <text class="cls-13" transform="translate(285.5 137.1)"><tspan x="0" y="0">105</tspan></text>
    <text class="cls-13" transform="translate(332.9 141.8)"><tspan x="0" y="0">99</tspan></text>
    <text class="cls-13" transform="translate(377.2 156.4)"><tspan x="0" y="0">80</tspan></text>
    <text class="cls-13" transform="translate(421.5 188.1)"><tspan x="0" y="0">39</tspan></text>
    <text class="cls-13" transform="translate(465.7 158)"><tspan x="0" y="0">78</tspan></text>
    <text class="cls-13" transform="translate(510 157.2)"><tspan x="0" y="0">79</tspan></text>
    <text class="cls-13" transform="translate(554.3 160.3)"><tspan x="0" y="0">75</tspan></text>
    <line class="cls-4" x1="45.3" y1="220.2" x2="585.6" y2="220.2"/>
  </g>
  <text class="cls-8" transform="translate(193 62.2)"><tspan x="0" y="0">201</tspan></text>
  <g>
    <g>
      <path class="cls-2" d="M450.5,241.2h129.4c.2,0,3.6.2,5.1-3.9.4-1.2.6-2.4.7-3.3"/>
      <path class="cls-2" d="M450.6,241.2h-129.4c-.2,0-3.6-.2-5.1,3.9-.4,1.2-.6,2.4-.7,3.3"/>
    </g>
    <g>
      <path class="cls-2" d="M180.4,241.2H51.1c-.2,0-3.6.2-5.1-3.9-.4-1.2-.6-2.4-.7-3.3"/>
      <path class="cls-2" d="M180.3,241.2h129.4c.2,0,3.6-.2,5.1,3.9.4,1.2.6,2.4.7,3.3"/>
    </g>
  </g>
  <rect class="cls-14" x="375.2" y="250.3" width="26.4" height="16.8"/>
  <text class="cls-6" transform="translate(185.8 264.5)"><tspan x="0" y="0">12 Bars</tspan></text>
  <g>
    <path class="cls-2" d="M465.2,159.7c-6.3-5.8-14-15.3-16.3-28.4-.8-4.6-2.2-12.4,1.9-20.6,6.5-13.1,21.7-16.1,23.9-16.5"/>
    <path class="cls-11" d="M472.4,165.4c-2.3-3.9-4.7-9.4-5.4-13.7l-2.5,7.2-6.6,3.9c4.4-.1,10.2,1.1,14.5,2.6Z"/>
  </g>
  <path class="cls-2" d="M230.7,47.8c-7.6-3.2-14.4-4.3-18.8-4.8-8.2-.8-15.9-1.3-21.8,2.6-3.5,2.4-5.4,6.7-4.3,10.8,1.8,6.8,11.3,9.1,12.6,9.4,9.1,2.2,20.7-.7,24.8-7.5.5-.9,2.2-3.6,1.4-6.7-1.7-6.3-13-11.3-28.1-11.1"/>
  <rect class="cls-14" x="354.9" y="34" width="81" height="19.7"/>
  <text class="cls-7" transform="translate(238.5 48.6)"><tspan x="0" y="0">The team counted 201 visitors </tspan><tspan x="0" y="19.2">on this day</tspan></text>
  <g>
    <line class="cls-1" x1="245.6" y1="260.3" x2="260.3" y2="260.3"/>
    <polygon class="cls-9" points="259.1 264.3 266 260.3 259.1 256.3 259.1 264.3"/>
  </g>
  <rect class="cls-14" x="513.3" y="92.1" width="54.6" height="19.2"/>
  <text class="cls-7" transform="translate(475.6 88.5)"><tspan x="0" y="0" xml:space="preserve">Dark colored bar         This day </tspan><tspan x="0" y="19.2">was a holiday</tspan></text>
  <g>
    <line class="cls-1" x1="590.5" y1="84.2" x2="606.2" y2="84.2"/>
    <polygon class="cls-9" points="605 88.3 612.1 84.2 605 80.1 605 88.3"/>
  </g>
  <text class="cls-6" transform="translate(268.1 264.5)"><tspan x="0" y="0" xml:space="preserve">The study last  12  days</tspan></text>
</svg>