<?xml version="1.0" encoding="utf-8"?>
<!-- Generator: Adobe Illustrator 27.0.0, SVG Export Plug-In . SVG Version: 6.00 Build 0)  -->
<svg version="1.1" id="Layer_1" xmlns="http://www.w3.org/2000/svg" xmlns:xlink="http://www.w3.org/1999/xlink" x="0px" y="0px"
	 viewBox="0 0 720 275" style="enable-background:new 0 0 720 275;" xml:space="preserve">
<style type="text/css">
	.st0{fill:none;stroke:#FFFFFF;stroke-width:1.07;stroke-linejoin:round;stroke-miterlimit:10;}
	.st1{fill:#D3D3D3;}
	.st2{fill-opacity:0.84;}
	.st3{font-family:'ArialMT';}
	.st4{font-size:11.04px;}
	.st5{fill:none;stroke:#000000;stroke-width:1.07;stroke-linejoin:round;stroke-miterlimit:10;}
	.st6{fill:none;}
</style>
<g>
	<g>
		<g>
			<line class="st0" x1="8.2" y1="208.8" x2="714.5" y2="208.8"/>
			<rect x="19.1" y="38.4" class="st1" width="30.5" height="170.4"/>
			<rect x="62.7" y="67.6" class="st1" width="30.5" height="141.2"/>
			<rect x="106.3" y="72.5" class="st1" width="30.5" height="136.3"/>
			<rect x="149.9" y="72.5" class="st1" width="30.5" height="136.3"/>
			<rect x="193.5" y="82.2" class="st2" width="30.5" height="126.6"/>
			<rect x="237.1" y="82.2" class="st1" width="30.5" height="126.6"/>
			<rect x="280.7" y="101.7" class="st1" width="30.5" height="107.1"/>
			<rect x="324.3" y="106.6" class="st1" width="30.5" height="102.2"/>
			<rect x="367.9" y="116.3" class="st1" width="30.5" height="92.5"/>
			<rect x="411.5" y="126.1" class="st1" width="30.5" height="82.8"/>
			<rect x="455.1" y="140.7" class="st1" width="30.5" height="68.2"/>
			<rect x="498.7" y="155.3" class="st1" width="30.5" height="53.5"/>
			<rect x="542.3" y="174.8" class="st1" width="30.5" height="34.1"/>
			<rect x="585.9" y="184.5" class="st1" width="30.5" height="24.3"/>
			<rect x="629.5" y="189.4" class="st1" width="30.5" height="19.5"/>
			<rect x="673.1" y="194.2" class="st1" width="30.5" height="14.6"/>
			<text transform="matrix(1 0 0 1 28.2401 36.45)" class="st3 st4">35</text>
			<text transform="matrix(1 0 0 1 71.8401 65.67)" class="st3 st4">29</text>
			<text transform="matrix(1 0 0 1 115.4401 70.53)" class="st3 st4">28</text>
			<text transform="matrix(1 0 0 1 159.04 70.53)" class="st3 st4">28</text>
			<text transform="matrix(1 0 0 1 202.6301 80.27)" class="st3 st4">26</text>
			<text transform="matrix(1 0 0 1 246.2301 80.27)" class="st3 st4">26</text>
			<text transform="matrix(1 0 0 1 289.8301 99.74)" class="st3 st4">22</text>
			<text transform="matrix(1 0 0 1 333.4301 104.61)" class="st3 st4">21</text>
			<text transform="matrix(1 0 0 1 377.0301 114.35)" class="st3 st4">19</text>
			<text transform="matrix(1 0 0 1 420.6301 124.09)" class="st3 st4">17</text>
			<text transform="matrix(1 0 0 1 464.2301 138.69)" class="st3 st4">14</text>
			<text transform="matrix(1 0 0 1 554.49 172.77)" class="st3 st4">7</text>
			<text transform="matrix(1 0 0 1 598.0901 182.51)" class="st3 st4">5</text>
			<text transform="matrix(1 0 0 1 641.6902 187.38)" class="st3 st4">4</text>
			<text transform="matrix(1 0 0 1 685.29 192.24)" class="st3 st4">3</text>
			<line class="st5" x1="8.2" y1="208.8" x2="714.5" y2="208.8"/>
		</g>
	</g>
</g>
<rect x="505.7" y="143.3" class="st6" width="12.3" height="13.1"/>
<text transform="matrix(1 0 0 1 505.6818 152.7329)" class="st3 st4">1</text>
</svg>
