<?xml version="1.0" encoding="utf-8"?>
<!-- Generator: Adobe Illustrator 27.0.0, SVG Export Plug-In . SVG Version: 6.00 Build 0)  -->
<svg version="1.1" id="Layer_1" xmlns="http://www.w3.org/2000/svg" xmlns:xlink="http://www.w3.org/1999/xlink" x="0px" y="0px"
	 viewBox="0 0 720 275" style="enable-background:new 0 0 720 275;" xml:space="preserve">
<style type="text/css">
	.st0{fill:none;stroke:#FFFFFF;stroke-width:1.07;stroke-linejoin:round;stroke-miterlimit:10;}
	.st1{fill:#D3D3D3;}
	.st2{fill:none;}
	.st3{font-family:'ArialMT';}
	.st4{font-size:11.04px;}
	.st5{fill:none;stroke:#000000;stroke-width:1.07;stroke-linejoin:round;stroke-miterlimit:10;}
</style>
<g>
	<line class="st0" x1="8.2" y1="208.8" x2="714.5" y2="208.8"/>
	<rect x="62.7" y="171.3" class="st1" width="30.5" height="37.5"/>
	<rect x="106.3" y="103.2" class="st1" width="30.5" height="105.6"/>
	<rect x="149.9" y="72.5" class="st1" width="30.5" height="136.3"/>
	<rect x="193.5" y="106.6" class="st1" width="30.5" height="102.2"/>
	<rect x="237.1" y="38.4" class="st1" width="30.5" height="170.4"/>
	<rect x="280.7" y="116.8" class="st1" width="30.5" height="92"/>
	<rect x="324.3" y="99.8" class="st1" width="30.5" height="109.1"/>
	<rect x="367.9" y="93" class="st1" width="30.5" height="115.9"/>
	<rect x="411.5" y="164.5" class="st1" width="30.5" height="44.3"/>
	<rect x="455.1" y="99.8" class="st1" width="30.5" height="109.1"/>
	<rect x="498.7" y="65.7" class="st1" width="30.5" height="143.1"/>
	<rect x="542.3" y="174.8" class="st1" width="30.5" height="34.1"/>
	<rect x="585.9" y="147.5" class="st1" width="30.5" height="61.3"/>
	<rect x="629.5" y="113.4" class="st1" width="30.5" height="95.4"/>
	<rect x="673.1" y="161.1" class="st1" width="30.5" height="47.7"/>
	<rect x="72.2" y="159.9" class="st2" width="12.3" height="13.1"/>
	<text transform="matrix(1 0 0 1 72.25 169.3604)" class="st3 st4">1</text>
	<text transform="matrix(1 0 0 1 115.4401 101.2)" class="st3 st4">31</text>
	<text transform="matrix(1 0 0 1 159.04 70.53)" class="st3 st4">40</text>
	<text transform="matrix(1 0 0 1 202.6301 104.61)" class="st3 st4">30</text>
	<text transform="matrix(1 0 0 1 246.2301 36.45)" class="st3 st4">50</text>
	<text transform="matrix(1 0 0 1 289.8301 114.84)" class="st3 st4">27</text>
	<text transform="matrix(1 0 0 1 333.4301 97.8)" class="st3 st4">32</text>
	<text transform="matrix(1 0 0 1 377.0301 90.98)" class="st3 st4">34</text>
	<text transform="matrix(1 0 0 1 420.6301 162.55)" class="st3 st4">13</text>
	<text transform="matrix(1 0 0 1 464.2301 97.8)" class="st3 st4">32</text>
	<text transform="matrix(1 0 0 1 507.8301 63.72)" class="st3 st4">42</text>
	<text transform="matrix(1 0 0 1 551.4202 172.77)" class="st3 st4">10</text>
	<text transform="matrix(1 0 0 1 595.02 145.51)" class="st3 st4">18</text>
	<text transform="matrix(1 0 0 1 638.6201 111.43)" class="st3 st4">28</text>
	<text transform="matrix(1 0 0 1 682.2201 159.14)" class="st3 st4">14</text>
	<line class="st5" x1="8.2" y1="208.8" x2="714.5" y2="208.8"/>
</g>
<rect x="19.1" y="113.4" class="st1" width="30.5" height="95.4"/>
<text transform="matrix(1 0 0 1 28.2401 111.43)" class="st3 st4">28</text>
</svg>
