<?xml version="1.0" encoding="utf-8"?>
<!-- Generator: Adobe Illustrator 27.0.0, SVG Export Plug-In . SVG Version: 6.00 Build 0)  -->
<svg version="1.1" id="Layer_1" xmlns="http://www.w3.org/2000/svg" xmlns:xlink="http://www.w3.org/1999/xlink" x="0px" y="0px"
	 viewBox="0 0 720 275" style="enable-background:new 0 0 720 275;" xml:space="preserve">
<style type="text/css">
	.st0{fill:none;stroke:#FFFFFF;stroke-width:1.07;stroke-linejoin:round;stroke-miterlimit:10;}
	.st1{fill:#D3D3D3;}
	.st2{fill:none;stroke:#000000;stroke-width:1.07;stroke-linejoin:round;stroke-miterlimit:10;}
</style>
<g>
	<g>
		<line class="st0" x1="8.2" y1="208.8" x2="714.5" y2="208.8"/>
		<rect x="19.1" y="95.2" class="st1" width="30.5" height="113.6"/>
		<rect x="62.7" y="76.3" class="st1" width="30.5" height="132.5"/>
		<rect x="106.3" y="109.4" class="st1" width="30.5" height="99.4"/>
		<rect x="149.9" y="90.5" class="st1" width="30.5" height="118.3"/>
		<rect x="193.5" y="161.5" class="st1" width="30.5" height="47.3"/>
		<rect x="237.1" y="161.5" class="st1" width="30.5" height="47.3"/>
		<rect x="280.7" y="109.4" class="st1" width="30.5" height="99.4"/>
		<rect x="324.3" y="43.2" class="st1" width="30.5" height="165.7"/>
		<rect x="367.9" y="114.2" class="st1" width="30.5" height="94.7"/>
		<rect x="411.5" y="38.4" class="st1" width="30.5" height="170.4"/>
		<rect x="455.1" y="95.2" class="st1" width="30.5" height="113.6"/>
		<rect x="498.7" y="62.1" class="st1" width="30.5" height="146.7"/>
		<rect x="542.3" y="90.5" class="st1" width="30.5" height="118.3"/>
		<rect x="585.9" y="171" class="st1" width="30.5" height="37.9"/>
		<rect x="629.5" y="152" class="st1" width="30.5" height="56.8"/>
		<rect x="673.1" y="100" class="st1" width="30.5" height="108.9"/>
		<line class="st2" x1="8.2" y1="208.8" x2="714.5" y2="208.8"/>
	</g>
</g>
</svg>
