<?xml version="1.0" encoding="utf-8"?>
<!-- Generator: Adobe Illustrator 27.0.0, SVG Export Plug-In . SVG Version: 6.00 Build 0)  -->
<svg version="1.1" id="Layer_1" xmlns="http://www.w3.org/2000/svg" xmlns:xlink="http://www.w3.org/1999/xlink" x="0px" y="0px"
	 viewBox="0 0 720 275" style="enable-background:new 0 0 720 275;" xml:space="preserve">
<style type="text/css">
	.st0{fill:none;stroke:#FFFFFF;stroke-width:1.07;stroke-linejoin:round;stroke-miterlimit:10;}
	.st1{fill:#D3D3D3;}
	.st2{fill-opacity:0.84;}
	.st3{fill:none;stroke:#000000;stroke-width:1.07;stroke-linejoin:round;stroke-miterlimit:10;}
</style>
<g>
	<g>
		<line class="st0" x1="8.2" y1="208.8" x2="714.5" y2="208.8"/>
		<rect x="19.1" y="38.4" class="st1" width="30.5" height="170.4"/>
		<rect x="62.7" y="58.2" class="st1" width="30.5" height="150.6"/>
		<rect x="106.3" y="70.1" class="st1" width="30.5" height="138.7"/>
		<rect x="149.9" y="97.9" class="st1" width="30.5" height="111"/>
		<rect x="193.5" y="101.8" class="st1" width="30.5" height="107"/>
		<rect x="237.1" y="105.8" class="st2" width="30.5" height="103"/>
		<rect x="280.7" y="113.7" class="st1" width="30.5" height="95.1"/>
		<rect x="324.3" y="113.7" class="st1" width="30.5" height="95.1"/>
		<rect x="367.9" y="121.6" class="st1" width="30.5" height="87.2"/>
		<rect x="411.5" y="125.6" class="st1" width="30.5" height="83.2"/>
		<rect x="455.1" y="145.4" class="st1" width="30.5" height="63.4"/>
		<rect x="498.7" y="149.4" class="st1" width="30.5" height="59.4"/>
		<rect x="542.3" y="161.3" class="st1" width="30.5" height="47.5"/>
		<rect x="585.9" y="165.2" class="st1" width="30.5" height="43.6"/>
		<rect x="629.5" y="165.2" class="st1" width="30.5" height="43.6"/>
		<rect x="673.1" y="193" class="st1" width="30.5" height="15.9"/>
		<line class="st3" x1="8.2" y1="208.8" x2="714.5" y2="208.8"/>
	</g>
</g>
</svg>
