<?xml version="1.0" encoding="UTF-8"?>
<svg id="Layer_1" data-name="Layer 1" xmlns="http://www.w3.org/2000/svg" viewBox="0 0 1101.66 660.37">
  <defs>
    <style>
      .cls-1 {
        fill: #efe8ea;
      }

      .cls-1, .cls-2, .cls-3 {
        stroke: #231f20;
        stroke-miterlimit: 10;
      }

      .cls-2 {
        stroke-width: 5px;
      }

      .cls-2, .cls-3 {
        fill: none;
      }

      .cls-4 {
        stroke-width: 0px;
      }

      .cls-4, .cls-5 {
        fill: #231f20;
      }

      .cls-5 {
        font-family: Roboto-Regular, Roboto;
        font-size: 28px;
      }

      .cls-3 {
        stroke-dasharray: 0 0 0 0 1.99 1.99 1.99 1.99;
      }
    </style>
  </defs>
  <circle class="cls-3" cx="558.64" cy="336.79" r="207"/>
  <path class="cls-1" d="M436.59,113.67c-6.63-14.22-.86-31.3,12.89-38.15,13.74-6.85,30.26-.89,36.89,13.33,6.63,14.22.86,31.3-12.89,38.15-13.74,6.85-30.26.89-36.89-13.33Z"/>
  <path class="cls-1" d="M321.73,244.32c-14.21-6.63-20.77-23.42-14.65-37.51,6.12-14.09,22.61-20.13,36.82-13.5,14.21,6.63,20.77,23.42,14.65,37.51-6.12,14.09-22.61,20.13-36.82,13.5Z"/>
  <path class="cls-1" d="M317.71,418.24c-15.15,4.06-30.97-4.59-35.33-19.32-4.36-14.73,4.38-29.95,19.53-34.01,15.15-4.06,30.97,4.59,35.33,19.32,4.36,14.73-4.38,29.95-19.53,34.01Z"/>
  <path class="cls-1" d="M426.44,554.05c-9,12.85-26.67,16.39-39.48,7.91-12.81-8.48-15.9-25.76-6.9-38.61,9-12.85,26.67-16.39,39.48-7.91,12.81,8.48,15.9,25.76,6.9,38.61Z"/>
  <path class="cls-1" d="M597.02,588.2c1.37,15.63-9.9,29.7-25.16,31.44-15.26,1.74-28.74-9.52-30.1-25.14-1.37-15.63,9.9-29.7,25.16-31.44,15.26-1.74,28.74,9.52,30.1,25.14Z"/>
  <path class="cls-1" d="M749.65,504.72c11.09,11.09,11.51,29.12.94,40.26-10.57,11.14-28.13,11.18-39.22.09-11.09-11.09-11.51-29.12-.94-40.26,10.57-11.14,28.13-11.18,39.22-.09Z"/>
  <path class="cls-1" d="M812.9,342.66c15.62,1.37,27.53,14.91,26.6,30.24-.94,15.33-14.36,26.65-29.99,25.28-15.62-1.37-27.53-14.91-26.6-30.24.94-15.33,14.36-26.65,29.99-25.28Z"/>
  <path class="cls-1" d="M757.18,177.85c12.85-9,30.67-6.28,39.81,6.07,9.14,12.35,6.13,29.65-6.72,38.64-12.85,9-30.67,6.28-39.81-6.07-9.14-12.35-6.13-29.65,6.72-38.64Z"/>
  <path class="cls-1" d="M608.57,87.41c4.06-15.15,19.46-24.53,34.39-20.94,14.93,3.58,23.75,18.77,19.69,33.92-4.06,15.15-19.46,24.53-34.39,20.94-14.93-3.58-23.75-18.77-19.69-33.92Z"/>
  <g>
    <line class="cls-2" x1="252.55" y1="391.86" x2="166.33" y2="391.86"/>
    <polygon class="cls-4" points="242.15 378.16 247.98 391.86 242.15 405.56 274.63 391.86 242.15 378.16"/>
  </g>
  <text class="cls-5" transform="translate(73.19 391.58) scale(.99 1)"><tspan x="0" y="0">First</tspan><tspan x=".57" y="33.6">visitor</tspan></text>
</svg>