<?xml version="1.0" encoding="utf-8"?>
<!-- Generator: Adobe Illustrator 27.0.0, SVG Export Plug-In . SVG Version: 6.00 Build 0)  -->
<svg version="1.1" id="Layer_1" xmlns="http://www.w3.org/2000/svg" xmlns:xlink="http://www.w3.org/1999/xlink" x="0px" y="0px"
	 viewBox="0 0 720 275" style="enable-background:new 0 0 720 275;" xml:space="preserve">
<style type="text/css">
	.st0{fill:none;stroke:#FFFFFF;stroke-width:0.53;stroke-linejoin:round;stroke-miterlimit:10;}
	.st1{fill:none;stroke:#FFFFFF;stroke-width:1.07;stroke-linejoin:round;stroke-miterlimit:10;}
	.st2{fill:#D3D3D3;}
	.st3{fill-opacity:0.84;}
	.st4{font-family:'ArialMT';}
	.st5{font-size:11.04px;}
	.st6{fill:none;stroke:#000000;stroke-width:1.07;stroke-linejoin:round;stroke-miterlimit:10;}
</style>
<g>
	<g>
		<line class="st0" x1="8.2" y1="136.6" x2="714.5" y2="136.6"/>
		<line class="st1" x1="8.2" y1="208.8" x2="714.5" y2="208.8"/>
		<rect x="18.5" y="145.3" class="st2" width="28.7" height="63.5"/>
		<rect x="59.5" y="99.1" class="st2" width="28.7" height="109.8"/>
		<rect x="100.6" y="102" class="st2" width="28.7" height="106.9"/>
		<rect x="141.7" y="182.8" class="st2" width="28.7" height="26"/>
		<rect x="182.7" y="38.4" class="st2" width="28.7" height="170.4"/>
		<rect x="223.8" y="128" class="st2" width="28.7" height="80.9"/>
		<rect x="264.9" y="159.7" class="st2" width="28.7" height="49.1"/>
		<rect x="305.9" y="99.1" class="st2" width="28.7" height="109.8"/>
		<rect x="347" y="171.3" class="st3" width="28.7" height="37.5"/>
		<rect x="388.1" y="110.6" class="st2" width="28.7" height="98.2"/>
		<rect x="429.1" y="99.1" class="st2" width="28.7" height="109.8"/>
		<rect x="470.2" y="188.6" class="st2" width="28.7" height="20.2"/>
		<rect x="511.2" y="136.6" class="st2" width="28.7" height="72.2"/>
		<rect x="552.3" y="133.7" class="st2" width="28.7" height="75.1"/>
		<rect x="593.4" y="159.7" class="st2" width="28.7" height="49.1"/>
		<rect x="634.5" y="107.8" class="st2" width="28.7" height="101.1"/>
		<rect x="675.5" y="107.8" class="st2" width="28.7" height="101.1"/>
		<text transform="matrix(1 0 0 1 26.7201 143.31)" class="st4 st5">22</text>
		<text transform="matrix(1 0 0 1 67.7801 97.1)" class="st4 st5">38</text>
		<text transform="matrix(1 0 0 1 108.8501 99.99)" class="st4 st5">37</text>
		<text transform="matrix(1 0 0 1 152.98 180.86)" class="st4 st5">9</text>
		<text transform="matrix(1 0 0 1 190.9701 36.45)" class="st4 st5">59</text>
		<text transform="matrix(1 0 0 1 232.04 125.98)" class="st4 st5">28</text>
		<text transform="matrix(1 0 0 1 273.1001 157.75)" class="st4 st5">17</text>
		<text transform="matrix(1 0 0 1 314.17 97.1)" class="st4 st5">38</text>
		<text transform="matrix(1 0 0 1 355.2301 169.3)" class="st4 st5">13</text>
		<text transform="matrix(1 0 0 1 396.29 108.66)" class="st4 st5">34</text>
		<text transform="matrix(1 0 0 1 437.3601 97.1)" class="st4 st5">38</text>
		<text transform="matrix(1 0 0 1 481.49 186.63)" class="st4 st5">7</text>
		<text transform="matrix(1 0 0 1 519.4901 134.65)" class="st4 st5">25</text>
		<text transform="matrix(1 0 0 1 560.55 131.76)" class="st4 st5">26</text>
		<text transform="matrix(1 0 0 1 601.6101 157.75)" class="st4 st5">17</text>
		<text transform="matrix(1 0 0 1 642.6802 105.77)" class="st4 st5">35</text>
		<text transform="matrix(1 0 0 1 683.7401 105.77)" class="st4 st5">35</text>
		<line class="st6" x1="8.2" y1="208.8" x2="714.5" y2="208.8"/>
	</g>
</g>
</svg>
