<?xml version="1.0" encoding="utf-8"?>
<!-- Generator: Adobe Illustrator 27.0.0, SVG Export Plug-In . SVG Version: 6.00 Build 0)  -->
<svg version="1.1" id="Layer_1" xmlns="http://www.w3.org/2000/svg" xmlns:xlink="http://www.w3.org/1999/xlink" x="0px" y="0px"
	 viewBox="0 0 720 275" style="enable-background:new 0 0 720 275;" xml:space="preserve">
<style type="text/css">
	.st0{fill:none;stroke:#FFFFFF;stroke-width:1.07;stroke-linejoin:round;stroke-miterlimit:10;}
	.st1{fill:#D3D3D3;}
	.st2{fill-opacity:0.84;}
	.st3{font-family:'ArialMT';}
	.st4{font-size:11.04px;}
	.st5{fill:none;stroke:#000000;stroke-width:1.07;stroke-linejoin:round;stroke-miterlimit:10;}
</style>
<g>
	<g>
		<line class="st0" x1="8.2" y1="208.8" x2="714.5" y2="208.8"/>
		<rect x="19.1" y="73.9" class="st1" width="30.5" height="134.9"/>
		<rect x="62.7" y="38.4" class="st1" width="30.5" height="170.4"/>
		<rect x="106.3" y="184" class="st1" width="30.5" height="24.9"/>
		<rect x="149.9" y="113" class="st1" width="30.5" height="95.9"/>
		<rect x="193.5" y="141.4" class="st2" width="30.5" height="67.5"/>
		<rect x="237.1" y="166.2" class="st1" width="30.5" height="42.6"/>
		<rect x="280.7" y="91.7" class="st1" width="30.5" height="117.1"/>
		<rect x="324.3" y="134.3" class="st1" width="30.5" height="74.6"/>
		<rect x="367.9" y="184" class="st1" width="30.5" height="24.9"/>
		<rect x="411.5" y="113" class="st1" width="30.5" height="95.9"/>
		<rect x="455.1" y="194.6" class="st1" width="30.5" height="14.2"/>
		<rect x="498.7" y="155.6" class="st1" width="30.5" height="53.2"/>
		<rect x="542.3" y="98.8" class="st1" width="30.5" height="110.1"/>
		<rect x="585.9" y="194.6" class="st1" width="30.5" height="14.2"/>
		<rect x="629.5" y="166.2" class="st1" width="30.5" height="42.6"/>
		<rect x="673.1" y="176.9" class="st1" width="30.5" height="32"/>
		<text transform="matrix(1 0 0 1 28.2401 71.95)" class="st3 st4">38</text>
		<text transform="matrix(1 0 0 1 71.8401 36.45)" class="st3 st4">48</text>
		<text transform="matrix(1 0 0 1 118.51 182)" class="st3 st4">7</text>
		<text transform="matrix(1 0 0 1 159.04 111)" class="st3 st4">27</text>
		<text transform="matrix(1 0 0 1 202.6301 139.4)" class="st3 st4">19</text>
		<text transform="matrix(1 0 0 1 246.2301 164.25)" class="st3 st4">12</text>
		<text transform="matrix(1 0 0 1 289.8301 89.7)" class="st3 st4">33</text>
		<text transform="matrix(1 0 0 1 333.4301 132.3)" class="st3 st4">21</text>
		<text transform="matrix(1 0 0 1 380.1001 182)" class="st3 st4">7</text>
		<text transform="matrix(1 0 0 1 420.6301 111)" class="st3 st4">27</text>
		<text transform="matrix(1 0 0 1 467.3 192.65)" class="st3 st4">4</text>
		<text transform="matrix(1 0 0 1 507.8301 153.6)" class="st3 st4">15</text>
		<text transform="matrix(1 0 0 1 551.4202 96.8)" class="st3 st4">31</text>
		<text transform="matrix(1 0 0 1 598.0901 192.65)" class="st3 st4">4</text>
		<text transform="matrix(1 0 0 1 638.6201 164.25)" class="st3 st4">12</text>
		<text transform="matrix(1 0 0 1 685.29 174.9)" class="st3 st4">9</text>
		<line class="st5" x1="8.2" y1="208.8" x2="714.5" y2="208.8"/>
	</g>
</g>
</svg>
