<?xml version="1.0" encoding="UTF-8"?>
<svg id="Layer_1" data-name="Layer 1" xmlns="http://www.w3.org/2000/svg" version="1.1" viewBox="0 0 642.9 288">
  <defs>
    <style>
      .cls-1 {
        stroke: #05000c;
        stroke-miterlimit: 10;
      }

      .cls-1, .cls-2, .cls-3, .cls-4, .cls-5 {
        fill: none;
      }

      .cls-1, .cls-3 {
        stroke-width: 2px;
      }

      .cls-6 {
        font-family: MyriadPro-Bold, 'Myriad Pro';
        font-size: 18px;
      }

      .cls-6, .cls-7, .cls-8, .cls-9, .cls-10 {
        isolation: isolate;
      }

      .cls-6, .cls-8 {
        font-weight: 700;
      }

      .cls-6, .cls-8, .cls-9 {
        fill: #000;
      }

      .cls-11 {
        fill: #d9c4d5;
        stroke: #eec5dd;
        stroke-width: .8px;
      }

      .cls-7 {
        fill: #fff;
        font-family: ArialMT, Arial;
        font-size: 11.4px;
      }

      .cls-12 {
        fill: #05000c;
      }

      .cls-12, .cls-13, .cls-14, .cls-15 {
        stroke-width: 0px;
      }

      .cls-13 {
        fill: #d3d3d3;
      }

      .cls-8 {
        font-family: SourceSansPro-Bold, 'Source Sans Pro';
      }

      .cls-8, .cls-9 {
        font-size: 14px;
      }

      .cls-2 {
        stroke: #000;
      }

      .cls-2, .cls-4, .cls-5 {
        stroke-linejoin: round;
      }

      .cls-2, .cls-5 {
        stroke-width: 1.1px;
      }

      .cls-9 {
        font-family: SourceSansPro-Regular, 'Source Sans Pro';
      }

      .cls-3 {
        stroke: #b19aca;
      }

      .cls-4 {
        stroke-width: .5px;
      }

      .cls-4, .cls-5 {
        stroke: #fff;
      }

      .cls-14 {
        fill: #b19aca;
      }

      .cls-15 {
        fill: #231f20;
      }
    </style>
  </defs>
  <g>
    <path class="cls-4" d="M696.5,297.4"/>
    <path class="cls-5" d="M696.5,374.6"/>
    <rect class="cls-13" x="34.6" y="117.5" width="31" height="102.7"/>
    <rect class="cls-13" x="78.9" y="114.4" width="31" height="105.8"/>
    <rect class="cls-13" x="123.1" y="169.3" width="31" height="50.9"/>
    <rect class="cls-13" x="167.4" y="65.1" width="31" height="155.2"/>
    <rect class="cls-13" x="211.7" y="177" width="31" height="43.2"/>
    <rect class="cls-13" x="256" y="139.2" width="31" height="81.1"/>
    <rect class="cls-13" x="300.2" y="143.8" width="31" height="76.4"/>
    <rect class="cls-13" x="344.5" y="158.5" width="31" height="61.8"/>
    <rect class="cls-13" x="388.8" y="190.1" width="31" height="30.1"/>
    <rect class="cls-15" x="433.1" y="160" width="31" height="60.2"/>
    <rect class="cls-13" x="477.3" y="159.2" width="31" height="61"/>
    <rect class="cls-13" x="521.6" y="162.3" width="31" height="57.9"/>
    <g class="cls-10">
      <g class="cls-10">
        <g class="cls-10">
          <text class="cls-7" transform="translate(-.5 178)"><tspan x="0" y="0">52</tspan></text>
        </g>
      </g>
    </g>
    <g class="cls-10">
      <g class="cls-10">
        <g class="cls-10">
          <text class="cls-7" transform="translate(40.6 115.5)"><tspan x="0" y="0">133</tspan></text>
        </g>
      </g>
    </g>
    <g class="cls-10">
      <g class="cls-10">
        <g class="cls-10">
          <text class="cls-7" transform="translate(84.9 112.4)"><tspan x="0" y="0">137</tspan></text>
        </g>
      </g>
    </g>
    <g class="cls-10">
      <g class="cls-10">
        <g class="cls-10">
          <text class="cls-7" transform="translate(132.3 167.2)"><tspan x="0" y="0">66</tspan></text>
        </g>
      </g>
    </g>
    <g class="cls-10">
      <g class="cls-10">
        <g class="cls-10">
          <text class="cls-7" transform="translate(220.9 174.9)"><tspan x="0" y="0">56</tspan></text>
        </g>
      </g>
    </g>
    <g class="cls-10">
      <g class="cls-10">
        <g class="cls-10">
          <text class="cls-7" transform="translate(262 137.1)"><tspan x="0" y="0">105</tspan></text>
        </g>
      </g>
    </g>
    <g class="cls-10">
      <g class="cls-10">
        <g class="cls-10">
          <text class="cls-7" transform="translate(309.4 141.8)"><tspan x="0" y="0">99</tspan></text>
        </g>
      </g>
    </g>
    <g class="cls-10">
      <g class="cls-10">
        <g class="cls-10">
          <text class="cls-7" transform="translate(353.7 156.4)"><tspan x="0" y="0">80</tspan></text>
        </g>
      </g>
    </g>
    <g class="cls-10">
      <g class="cls-10">
        <g class="cls-10">
          <text class="cls-7" transform="translate(398 188.1)"><tspan x="0" y="0">39</tspan></text>
        </g>
      </g>
    </g>
    <g class="cls-10">
      <g class="cls-10">
        <g class="cls-10">
          <text class="cls-7" transform="translate(442.2 158)"><tspan x="0" y="0">78</tspan></text>
        </g>
      </g>
    </g>
    <g class="cls-10">
      <g class="cls-10">
        <g class="cls-10">
          <text class="cls-7" transform="translate(486.5 157.2)"><tspan x="0" y="0">79</tspan></text>
        </g>
      </g>
    </g>
    <g class="cls-10">
      <g class="cls-10">
        <g class="cls-10">
          <text class="cls-7" transform="translate(530.8 160.3)"><tspan x="0" y="0">75</tspan></text>
        </g>
      </g>
    </g>
    <line class="cls-2" x1="21.8" y1="220.2" x2="562.1" y2="220.2"/>
  </g>
  <g class="cls-10">
    <g class="cls-10">
      <g class="cls-10">
        <text class="cls-6" transform="translate(169.5 62.2)"><tspan x="0" y="0">201</tspan></text>
      </g>
    </g>
  </g>
  <g>
    <g>
      <path class="cls-3" d="M427,242.2h129.4c.2,0,3.6.2,5.1-4.4.4-1.4.6-2.7.7-3.7"/>
      <path class="cls-3" d="M427.1,242.2h-129.4c-.2,0-3.6-.2-5.1,4.4-.4,1.4-.6,2.7-.7,3.7"/>
    </g>
    <g>
      <path class="cls-3" d="M156.9,242.2H27.6c-.2,0-3.6.2-5.1-4.4-.4-1.4-.6-2.7-.7-3.7"/>
      <path class="cls-3" d="M156.8,242.2h129.4c.2,0,3.6-.2,5.1,4.4.4,1.4.6,2.7.7,3.7"/>
    </g>
  </g>
  <rect class="cls-11" x="344.1" y="250.3" width="51.3" height="16.8"/>
  <g class="cls-10">
    <g class="cls-10">
      <text class="cls-9" transform="translate(168.3 264.5)"><tspan x="0" y="0">12 Bars</tspan></text>
    </g>
  </g>
  <path class="cls-3" d="M441.7,159.7c-6.3-5.8-14-15.3-16.3-28.4-.8-4.6-2.2-12.4,1.9-20.6,6.5-13.1,21.7-16.1,23.9-16.5"/>
  <path class="cls-14" d="M448.9,165.4c-2.3-3.9-4.7-9.4-5.4-13.7l-2.5,7.2-6.6,3.9c4.4-.1,10.2,1.1,14.5,2.6Z"/>
  <path class="cls-3" d="M212.2,47.5c-8.5-3.4-16.1-4.6-21-5.1-9.1-.9-17.7-1.4-24.3,2.8-3.9,2.6-6,7.2-4.8,11.6,2,7.3,12.6,9.8,14,10.1,10.1,2.4,23.1-.8,27.6-8,.6-1,2.5-3.9,1.6-7.2-1.9-6.8-14.5-12.1-31.3-11.9"/>
  <rect class="cls-11" x="322.4" y="34" width="70.3" height="19.7"/>
  <g class="cls-10">
    <g class="cls-10">
      <text class="cls-9" transform="translate(215 48.6)"><tspan x="0" y="0">The team counted 201 visitors</tspan></text>
    </g>
  </g>
  <g class="cls-10">
    <g class="cls-10">
      <text class="cls-9" transform="translate(266 67.8)"><tspan x="0" y="0">on this day</tspan></text>
    </g>
  </g>
  <g>
    <line class="cls-1" x1="218.1" y1="260.3" x2="232.8" y2="260.3"/>
    <polygon class="cls-12" points="231.6 264.3 238.5 260.3 231.6 256.3 231.6 264.3"/>
  </g>
  <rect class="cls-11" x="528.8" y="92.1" width="49.8" height="19.2"/>
  <g class="cls-10">
    <g class="cls-10">
      <text class="cls-9" transform="translate(452.5 88.3)"><tspan x="0" y="0" xml:space="preserve">Dark colored bar         This day </tspan></text>
    </g>
  </g>
  <g class="cls-10">
    <g class="cls-10">
      <text class="cls-9" transform="translate(496.1 107.7)"><tspan x="0" y="0">was a holiday</tspan></text>
    </g>
  </g>
  <g>
    <line class="cls-1" x1="553" y1="84.2" x2="568.7" y2="84.2"/>
    <polygon class="cls-12" points="567.5 88.3 574.6 84.2 567.5 80.1 567.5 88.3"/>
  </g>
  <g class="cls-10">
    <g class="cls-10">
      <text class="cls-9" transform="translate(244.6 264.5)"><tspan x="0" y="0" xml:space="preserve">The study lasted  </tspan></text>
    </g>
    <g class="cls-10">
      <text class="cls-8" transform="translate(345.7 264.5)"><tspan x="0" y="0" xml:space="preserve">12  </tspan></text>
    </g>
    <g class="cls-10">
      <text class="cls-9" transform="translate(366.1 264.5)"><tspan x="0" y="0">days</tspan></text>
    </g>
  </g>
</svg>