<?xml version="1.0" encoding="UTF-8"?>
<svg id="Layer_1" data-name="Layer 1" xmlns="http://www.w3.org/2000/svg" viewBox="0 0 636.43 272.62">
  <defs>
    <style>
      .cls-1, .cls-2, .cls-3 {
        font-family: SourceSansPro-Regular, 'Source Sans Pro';
      }

      .cls-1, .cls-2, .cls-3, .cls-4, .cls-5, .cls-6, .cls-7 {
        isolation: isolate;
      }

      .cls-1, .cls-2, .cls-3, .cls-5 {
        font-size: 14px;
      }

      .cls-1, .cls-2, .cls-3, .cls-5, .cls-6 {
        fill: #010101;
      }

      .cls-2 {
        letter-spacing: -.01em;
      }

      .cls-3 {
        letter-spacing: -.02em;
      }

      .cls-8 {
        fill: #000;
        font-family: AdobeArabic-Regular, 'Adobe Arabic';
      }

      .cls-8, .cls-6 {
        font-size: 18px;
      }

      .cls-9 {
        fill: #0d0a11;
      }

      .cls-9, .cls-10, .cls-11, .cls-12 {
        stroke-width: 0px;
      }

      .cls-10 {
        fill: #b09ac9;
      }

      .cls-13 {
        fill: #d8c4d5;
        stroke: #eec5dd;
        stroke-width: .8px;
      }

      .cls-4 {
        fill: #fff;
        font-family: ArialMT, Arial;
        font-size: 11.4px;
      }

      .cls-11 {
        fill: #d3d3d3;
      }

      .cls-5 {
        font-family: SourceSansPro-Bold, 'Source Sans Pro';
      }

      .cls-5, .cls-6 {
        font-weight: 700;
      }

      .cls-14 {
        stroke: #ca92c1;
      }

      .cls-14, .cls-15, .cls-16, .cls-17 {
        fill: none;
      }

      .cls-14, .cls-16, .cls-17 {
        stroke-width: 2px;
      }

      .cls-15 {
        stroke: #010101;
        stroke-linejoin: round;
        stroke-width: 1.1px;
      }

      .cls-6 {
        font-family: MyriadPro-Bold, 'Myriad Pro';
      }

      .cls-16 {
        stroke: #b09ac9;
      }

      .cls-17 {
        stroke: #0d0a11;
        stroke-miterlimit: 10;
      }

      .cls-12 {
        fill: #231f20;
      }
    </style>
  </defs>
  <g>
    <rect class="cls-11" x="34.62" y="102.64" width="31" height="102.7"/>
    <rect class="cls-11" x="78.92" y="99.54" width="31" height="105.8"/>
    <rect class="cls-11" x="123.12" y="154.44" width="31" height="50.9"/>
    <rect class="cls-11" x="167.42" y="50.24" width="31" height="155.2"/>
    <rect class="cls-11" x="211.72" y="162.14" width="31" height="43.2"/>
    <rect class="cls-11" x="256.02" y="124.34" width="31" height="81.1"/>
    <rect class="cls-11" x="300.22" y="128.94" width="31" height="76.4"/>
    <rect class="cls-11" x="344.52" y="143.64" width="31" height="61.8"/>
    <rect class="cls-11" x="388.82" y="175.24" width="31" height="30.1"/>
    <rect class="cls-12" x="433.12" y="145.14" width="31" height="60.2"/>
    <rect class="cls-11" x="477.32" y="144.34" width="31" height="61"/>
    <rect class="cls-11" x="521.62" y="147.44" width="31" height="57.9"/>
    <g class="cls-7">
      <g class="cls-7">
        <g class="cls-7">
          <text class="cls-4" transform="translate(-.48 163.14)"><tspan x="0" y="0">52</tspan></text>
        </g>
      </g>
    </g>
    <g class="cls-7">
      <g class="cls-7">
        <g class="cls-7">
          <text class="cls-4" transform="translate(40.62 100.64)"><tspan x="0" y="0">133</tspan></text>
        </g>
      </g>
    </g>
    <g class="cls-7">
      <g class="cls-7">
        <g class="cls-7">
          <text class="cls-4" transform="translate(84.92 97.54)"><tspan x="0" y="0">137</tspan></text>
        </g>
      </g>
    </g>
    <g class="cls-7">
      <g class="cls-7">
        <g class="cls-7">
          <text class="cls-4" transform="translate(132.32 152.34)"><tspan x="0" y="0">66</tspan></text>
        </g>
      </g>
    </g>
    <g class="cls-7">
      <g class="cls-7">
        <g class="cls-7">
          <text class="cls-4" transform="translate(220.92 160.04)"><tspan x="0" y="0">56</tspan></text>
        </g>
      </g>
    </g>
    <g class="cls-7">
      <g class="cls-7">
        <g class="cls-7">
          <text class="cls-4" transform="translate(262.02 122.24)"><tspan x="0" y="0">105</tspan></text>
        </g>
      </g>
    </g>
    <g class="cls-7">
      <g class="cls-7">
        <g class="cls-7">
          <text class="cls-4" transform="translate(309.42 126.94)"><tspan x="0" y="0">99</tspan></text>
        </g>
      </g>
    </g>
    <g class="cls-7">
      <g class="cls-7">
        <g class="cls-7">
          <text class="cls-4" transform="translate(353.72 141.54)"><tspan x="0" y="0">80</tspan></text>
        </g>
      </g>
    </g>
    <g class="cls-7">
      <g class="cls-7">
        <g class="cls-7">
          <text class="cls-4" transform="translate(398.02 173.24)"><tspan x="0" y="0">39</tspan></text>
        </g>
      </g>
    </g>
    <g class="cls-7">
      <g class="cls-7">
        <g class="cls-7">
          <text class="cls-4" transform="translate(442.22 143.14)"><tspan x="0" y="0">78</tspan></text>
        </g>
      </g>
    </g>
    <g class="cls-7">
      <g class="cls-7">
        <g class="cls-7">
          <text class="cls-4" transform="translate(486.52 142.34)"><tspan x="0" y="0">79</tspan></text>
        </g>
      </g>
    </g>
    <g class="cls-7">
      <g class="cls-7">
        <g class="cls-7">
          <text class="cls-4" transform="translate(530.82 145.44)"><tspan x="0" y="0">75</tspan></text>
        </g>
      </g>
    </g>
    <line class="cls-15" x1="21.82" y1="205.34" x2="562.12" y2="205.34"/>
  </g>
  <g class="cls-7">
    <g class="cls-7">
      <g class="cls-7">
        <text class="cls-6" transform="translate(169.52 47.34)"><tspan x="0" y="0">201</tspan></text>
      </g>
    </g>
  </g>
  <g>
    <g>
      <path class="cls-16" d="M427.02,227.34h129.4c.2,0,3.6.2,5.1-4.4.4-1.4.6-2.7.7-3.7"/>
      <path class="cls-16" d="M427.12,227.34h-129.4c-.2,0-3.6-.2-5.1,4.4-.4,1.4-.6,2.7-.7,3.7"/>
    </g>
    <g>
      <path class="cls-16" d="M156.92,227.34H27.62c-.2,0-3.6.2-5.1-4.4-.4-1.4-.6-2.7-.7-3.7"/>
      <path class="cls-16" d="M156.82,227.34h129.4c.2,0,3.6-.2,5.1,4.4.4,1.4.6,2.7.7,3.7"/>
    </g>
  </g>
  <rect class="cls-13" x="328.02" y="235.44" width="51.3" height="16.8"/>
  <g class="cls-7">
    <g class="cls-7">
      <text class="cls-1" transform="translate(168.32 249.64)"><tspan x="0" y="0">12 Ba</tspan></text>
      <text class="cls-1" transform="translate(200.32 249.64)"><tspan x="0" y="0">r</tspan></text>
      <text class="cls-1" transform="translate(205.14 249.64)"><tspan x="0" y="0">s</tspan></text>
    </g>
  </g>
  <path class="cls-16" d="M441.72,144.84c-6.3-5.8-14-15.3-16.3-28.4-.8-4.6-2.2-12.4,1.9-20.6,6.5-13.1,21.7-16.1,23.9-16.5"/>
  <path class="cls-10" d="M448.92,150.54c-2.3-3.9-4.7-9.4-5.4-13.7l-2.5,7.2-6.6,3.9c4.4-.1,10.2,1.1,14.5,2.6Z"/>
  <rect class="cls-13" x="273.52" y="19.7" width="42.2" height="19.7"/>
  <g>
    <line class="cls-17" x1="218.12" y1="245.44" x2="232.82" y2="245.44"/>
    <polygon class="cls-9" points="231.62 249.44 238.52 245.44 231.62 241.44 231.62 249.44"/>
  </g>
  <rect class="cls-13" x="528.82" y="77.24" width="49.8" height="19.2"/>
  <g class="cls-7">
    <g class="cls-7">
      <text class="cls-1" transform="translate(452.52 73.44)"><tspan x="0" y="0">Dark </tspan></text>
      <text class="cls-3" transform="translate(482.8 73.44)"><tspan x="0" y="0">c</tspan></text>
      <text class="cls-1" transform="translate(488.89 73.44)"><tspan x="0" y="0">olo</tspan></text>
      <text class="cls-2" transform="translate(507.64 73.44)"><tspan x="0" y="0">r</tspan></text>
      <text class="cls-1" transform="translate(512.37 73.44)"><tspan x="0" y="0">ed </tspan></text>
      <text class="cls-2" transform="translate(529.88 73.44)"><tspan x="0" y="0">b</tspan></text>
      <text class="cls-1" transform="translate(537.44 73.44)"><tspan x="0" y="0" xml:space="preserve">ar         This day </tspan></text>
    </g>
  </g>
  <g class="cls-7">
    <g class="cls-7">
      <text class="cls-1" transform="translate(496.12 92.84)"><tspan x="0" y="0">w</tspan></text>
      <text class="cls-1" transform="translate(506.03 92.84)"><tspan x="0" y="0">as a holiday</tspan></text>
    </g>
  </g>
  <g>
    <line class="cls-17" x1="553.02" y1="69.34" x2="568.72" y2="69.34"/>
    <polygon class="cls-9" points="567.52 73.44 574.62 69.34 567.52 65.24 567.52 73.44"/>
  </g>
  <g class="cls-7">
    <g class="cls-7">
      <text class="cls-1" transform="translate(244.62 249.64)"><tspan x="0" y="0">The </tspan></text>
      <text class="cls-3" transform="translate(269.48 249.64)"><tspan x="0" y="0">s</tspan></text>
      <text class="cls-1" transform="translate(275.07 249.64)"><tspan x="0" y="0">tudy la</tspan></text>
      <text class="cls-3" transform="translate(315.18 249.64)"><tspan x="0" y="0">s</tspan></text>
      <text class="cls-1" transform="translate(320.77 249.64)"><tspan x="0" y="0" xml:space="preserve">t  </tspan></text>
    </g>
    <g class="cls-7">
      <text class="cls-5" transform="translate(331.72 249.64)"><tspan x="0" y="0" xml:space="preserve">12  </tspan></text>
    </g>
    <g class="cls-7">
      <text class="cls-1" transform="translate(352.12 249.64)"><tspan x="0" y="0">days</tspan></text>
    </g>
  </g>
  <path class="cls-14" d="M211.72,32.6c-8.5-3.4-16.1-4.6-21-5.1-9.1-.9-17.7-1.4-24.3,2.8-3.9,2.6-6,7.2-4.8,11.6,2,7.3,12.6,9.8,14,10.1,10.1,2.4,23.1-.8,27.6-8,.6-1,2.5-3.9,1.6-7.2-1.9-6.8-14.5-12.1-31.3-11.9"/>
  <text class="cls-8" transform="translate(314.24 35.44)"><tspan x="0" y="0" xml:space="preserve"> كانه ناك</tspan></text>
</svg>