<?xml version="1.0" encoding="UTF-8"?>
<svg id="Layer_1" data-name="Layer 1" xmlns="http://www.w3.org/2000/svg" version="1.1" viewBox="0 0 636.4 272.6">
  <defs>
    <style>
      .cls-1, .cls-2 {
        font-family: SourceSansPro-Regular, 'Source Sans Pro';
      }

      .cls-1, .cls-2, .cls-3, .cls-4, .cls-5, .cls-6 {
        isolation: isolate;
      }

      .cls-1, .cls-2, .cls-4, .cls-5 {
        fill: #010101;
      }

      .cls-1, .cls-2, .cls-4, .cls-7 {
        font-size: 14px;
      }

      .cls-2 {
        letter-spacing: 0em;
      }

      .cls-8 {
        fill: #0d0a11;
      }

      .cls-8, .cls-9, .cls-10, .cls-11 {
        stroke-width: 0px;
      }

      .cls-12 {
        fill: #d8c4d5;
        stroke: #eec5dd;
        stroke-width: .8px;
      }

      .cls-3 {
        fill: #fff;
        font-family: ArialMT, Arial;
        font-size: 11.4px;
      }

      .cls-13 {
        stroke: #bc91ac;
      }

      .cls-13, .cls-14, .cls-15, .cls-16, .cls-17 {
        fill: none;
      }

      .cls-13, .cls-14, .cls-16, .cls-17 {
        stroke-width: 2px;
      }

      .cls-13, .cls-17 {
        stroke-miterlimit: 10;
      }

      .cls-9 {
        fill: #d3d3d3;
      }

      .cls-4 {
        font-family: SourceSansPro-Bold, 'Source Sans Pro';
      }

      .cls-4, .cls-5 {
        font-weight: 700;
      }

      .cls-10 {
        fill: #bc91ac;
      }

      .cls-14 {
        stroke: #ca92c1;
      }

      .cls-15 {
        stroke: #010101;
        stroke-linejoin: round;
        stroke-width: 1.1px;
      }

      .cls-5 {
        font-family: MyriadPro-Bold, 'Myriad Pro';
        font-size: 18px;
      }

      .cls-7 {
        fill: #000;
        font-family: KohinoorArabic-Medium, 'Kohinoor Arabic';
        font-weight: 500;
      }

      .cls-16 {
        stroke: #b09ac9;
      }

      .cls-17 {
        stroke: #0d0a11;
      }

      .cls-11 {
        fill: #231f20;
      }
    </style>
  </defs>
  <g>
    <rect class="cls-9" x="34.6" y="102.6" width="31" height="102.7"/>
    <rect class="cls-9" x="78.9" y="99.5" width="31" height="105.8"/>
    <rect class="cls-9" x="123.1" y="154.4" width="31" height="50.9"/>
    <rect class="cls-9" x="167.4" y="50.2" width="31" height="155.2"/>
    <rect class="cls-9" x="211.7" y="162.1" width="31" height="43.2"/>
    <rect class="cls-9" x="256" y="124.3" width="31" height="81.1"/>
    <rect class="cls-9" x="300.2" y="128.9" width="31" height="76.4"/>
    <rect class="cls-9" x="344.5" y="143.6" width="31" height="61.8"/>
    <rect class="cls-9" x="388.8" y="175.2" width="31" height="30.1"/>
    <rect class="cls-11" x="433.1" y="145.1" width="31" height="60.2"/>
    <rect class="cls-9" x="477.3" y="144.3" width="31" height="61"/>
    <rect class="cls-9" x="521.6" y="147.4" width="31" height="57.9"/>
    <g class="cls-6">
      <g class="cls-6">
        <g class="cls-6">
          <text class="cls-3" transform="translate(-.5 163.1)"><tspan x="0" y="0">52</tspan></text>
        </g>
      </g>
    </g>
    <g class="cls-6">
      <g class="cls-6">
        <g class="cls-6">
          <text class="cls-3" transform="translate(40.6 100.6)"><tspan x="0" y="0">133</tspan></text>
        </g>
      </g>
    </g>
    <g class="cls-6">
      <g class="cls-6">
        <g class="cls-6">
          <text class="cls-3" transform="translate(84.9 97.5)"><tspan x="0" y="0">137</tspan></text>
        </g>
      </g>
    </g>
    <g class="cls-6">
      <g class="cls-6">
        <g class="cls-6">
          <text class="cls-3" transform="translate(132.3 152.3)"><tspan x="0" y="0">66</tspan></text>
        </g>
      </g>
    </g>
    <g class="cls-6">
      <g class="cls-6">
        <g class="cls-6">
          <text class="cls-3" transform="translate(220.9 160)"><tspan x="0" y="0">56</tspan></text>
        </g>
      </g>
    </g>
    <g class="cls-6">
      <g class="cls-6">
        <g class="cls-6">
          <text class="cls-3" transform="translate(262 122.2)"><tspan x="0" y="0">105</tspan></text>
        </g>
      </g>
    </g>
    <g class="cls-6">
      <g class="cls-6">
        <g class="cls-6">
          <text class="cls-3" transform="translate(309.4 126.9)"><tspan x="0" y="0">99</tspan></text>
        </g>
      </g>
    </g>
    <g class="cls-6">
      <g class="cls-6">
        <g class="cls-6">
          <text class="cls-3" transform="translate(353.7 141.5)"><tspan x="0" y="0">80</tspan></text>
        </g>
      </g>
    </g>
    <g class="cls-6">
      <g class="cls-6">
        <g class="cls-6">
          <text class="cls-3" transform="translate(398 173.2)"><tspan x="0" y="0">39</tspan></text>
        </g>
      </g>
    </g>
    <g class="cls-6">
      <g class="cls-6">
        <g class="cls-6">
          <text class="cls-3" transform="translate(442.2 143.1)"><tspan x="0" y="0">78</tspan></text>
        </g>
      </g>
    </g>
    <g class="cls-6">
      <g class="cls-6">
        <g class="cls-6">
          <text class="cls-3" transform="translate(486.5 142.3)"><tspan x="0" y="0">79</tspan></text>
        </g>
      </g>
    </g>
    <g class="cls-6">
      <g class="cls-6">
        <g class="cls-6">
          <text class="cls-3" transform="translate(530.8 145.4)"><tspan x="0" y="0">75</tspan></text>
        </g>
      </g>
    </g>
    <line class="cls-15" x1="21.8" y1="205.3" x2="562.1" y2="205.3"/>
  </g>
  <g class="cls-6">
    <g class="cls-6">
      <g class="cls-6">
        <text class="cls-5" transform="translate(169.5 47.3)"><tspan x="0" y="0">201</tspan></text>
      </g>
    </g>
  </g>
  <g>
    <g>
      <path class="cls-16" d="M427,227.3h129.4c.2,0,3.6.2,5.1-4.4.4-1.4.6-2.7.7-3.7"/>
      <path class="cls-16" d="M427.1,227.3h-129.4c-.2,0-3.6-.2-5.1,4.4-.4,1.4-.6,2.7-.7,3.7"/>
    </g>
    <g>
      <path class="cls-16" d="M156.9,227.3H27.6c-.2,0-3.6.2-5.1-4.4-.4-1.4-.6-2.7-.7-3.7"/>
      <path class="cls-16" d="M156.8,227.3h129.4c.2,0,3.6-.2,5.1,4.4.4,1.4.6,2.7.7,3.7"/>
    </g>
  </g>
  <rect class="cls-12" x="328" y="235.4" width="51.3" height="16.8"/>
  <rect class="cls-12" x="289.5" y="12.7" width="48.2" height="23"/>
  <g>
    <line class="cls-17" x1="218.1" y1="245.4" x2="232.8" y2="245.4"/>
    <polygon class="cls-8" points="231.6 249.4 238.5 245.4 231.6 241.4 231.6 249.4"/>
  </g>
  <rect class="cls-12" x="370.9" y="103.9" width="63.8" height="19.2"/>
  <g>
    <line class="cls-17" x1="445.9" y1="95.6" x2="461.6" y2="95.6"/>
    <polygon class="cls-8" points="447.1 91.5 440 95.6 447.1 99.7 447.1 91.5"/>
  </g>
  <g class="cls-6">
    <g class="cls-6">
      <text class="cls-1" transform="translate(244.6 249.6)"><tspan x="0" y="0">The </tspan></text>
      <text class="cls-2" transform="translate(269.5 249.6)"><tspan x="0" y="0">s</tspan></text>
      <text class="cls-1" transform="translate(275.1 249.6)"><tspan x="0" y="0">tudy la</tspan></text>
      <text class="cls-2" transform="translate(315.2 249.6)"><tspan x="0" y="0">s</tspan></text>
      <text class="cls-1" transform="translate(320.8 249.6)"><tspan x="0" y="0" xml:space="preserve">t  </tspan></text>
    </g>
    <g class="cls-6">
      <text class="cls-4" transform="translate(331.7 249.6)"><tspan x="0" y="0" xml:space="preserve">12  </tspan></text>
    </g>
    <g class="cls-6">
      <text class="cls-1" transform="translate(352.1 249.6)"><tspan x="0" y="0">days</tspan></text>
    </g>
  </g>
  <path class="cls-14" d="M211.7,32.6c-8.5-3.4-16.1-4.6-21-5.1-9.1-.9-17.7-1.4-24.3,2.8-3.9,2.6-6,7.2-4.8,11.6,2,7.3,12.6,9.8,14,10.1,10.1,2.4,23.1-.8,27.6-8,.6-1,2.5-3.9,1.6-7.2-1.9-6.8-14.5-12.1-31.3-11.9"/>
  <text class="cls-7" transform="translate(337.9 28.4)"><tspan x="0" y="0" xml:space="preserve"> كانه ناك</tspan></text>
  <text class="cls-7" transform="translate(467.8 98.6)"><tspan x="0" y="0">نكادلا نوللا</tspan></text>
  <text class="cls-7" transform="translate(357.5 100.1)"><tspan x="0" y="0">مويلا اذه ناك</tspan><tspan x="18.5" y="16.8"> </tspan><tspan x="22.1" y="16.8">ةلطع موي</tspan></text>
  <g>
    <path class="cls-13" d="M456.6,153.3c6.4-3.5,15.1-10.2,19.8-21.8,4.5-11.1,2.9-21.2,1.9-25.4"/>
    <polygon class="cls-10" points="462 156 458 152.5 457.9 147.2 449.4 156.5 462 156"/>
  </g>
  <text/>
</svg>