<?xml version="1.0" encoding="utf-8"?>
<!-- Generator: Adobe Illustrator 27.0.0, SVG Export Plug-In . SVG Version: 6.00 Build 0)  -->
<svg version="1.1" id="Layer_1" xmlns="http://www.w3.org/2000/svg" xmlns:xlink="http://www.w3.org/1999/xlink" x="0px" y="0px"
	 viewBox="0 0 720 275" style="enable-background:new 0 0 720 275;" xml:space="preserve">
<style type="text/css">
	.st0{fill:none;stroke:#FFFFFF;stroke-width:1.07;stroke-linejoin:round;stroke-miterlimit:10;}
	.st1{fill:#D3D3D3;}
	.st2{fill-opacity:0.84;}
	.st3{font-family:'ArialMT';}
	.st4{font-size:11.04px;}
	.st5{fill:none;stroke:#000000;stroke-width:1.07;stroke-linejoin:round;stroke-miterlimit:10;}
</style>
<g>
	<g>
		<line class="st0" x1="8.2" y1="208.8" x2="714.5" y2="208.8"/>
		<rect x="19.1" y="190.9" class="st1" width="30.5" height="17.9"/>
		<rect x="62.7" y="69.8" class="st1" width="30.5" height="139"/>
		<rect x="106.3" y="150.5" class="st1" width="30.5" height="58.3"/>
		<rect x="149.9" y="177.4" class="st1" width="30.5" height="31.4"/>
		<rect x="193.5" y="87.8" class="st1" width="30.5" height="121.1"/>
		<rect x="237.1" y="137.1" class="st1" width="30.5" height="71.7"/>
		<rect x="280.7" y="181.9" class="st1" width="30.5" height="26.9"/>
		<rect x="324.3" y="92.2" class="st1" width="30.5" height="116.6"/>
		<rect x="367.9" y="38.4" class="st1" width="30.5" height="170.4"/>
		<rect x="411.5" y="132.6" class="st1" width="30.5" height="76.2"/>
		<rect x="455.1" y="65.3" class="st2" width="30.5" height="143.5"/>
		<rect x="498.7" y="141.6" class="st1" width="30.5" height="67.3"/>
		<rect x="542.3" y="83.3" class="st1" width="30.5" height="125.6"/>
		<rect x="585.9" y="105.7" class="st1" width="30.5" height="103.1"/>
		<rect x="629.5" y="137.1" class="st1" width="30.5" height="71.7"/>
		<rect x="673.1" y="51.9" class="st1" width="30.5" height="156.9"/>
		<text transform="matrix(1 0 0 1 31.3101 188.91)" class="st3 st4">4</text>
		<text transform="matrix(1 0 0 1 71.8401 67.84)" class="st3 st4">31</text>
		<text transform="matrix(1 0 0 1 115.4401 148.56)" class="st3 st4">13</text>
		<text transform="matrix(1 0 0 1 162.11 175.46)" class="st3 st4">7</text>
		<text transform="matrix(1 0 0 1 202.6301 85.78)" class="st3 st4">27</text>
		<text transform="matrix(1 0 0 1 246.2301 135.1)" class="st3 st4">16</text>
		<text transform="matrix(1 0 0 1 292.9 179.94)" class="st3 st4">6</text>
		<text transform="matrix(1 0 0 1 333.4301 90.26)" class="st3 st4">26</text>
		<text transform="matrix(1 0 0 1 377.0301 36.45)" class="st3 st4">38</text>
		<text transform="matrix(1 0 0 1 420.6301 130.62)" class="st3 st4">17</text>
		<text transform="matrix(1 0 0 1 464.2301 63.36)" class="st3 st4">32</text>
		<text transform="matrix(1 0 0 1 507.8301 139.59)" class="st3 st4">15</text>
		<text transform="matrix(1 0 0 1 551.4202 81.3)" class="st3 st4">28</text>
		<text transform="matrix(1 0 0 1 595.02 103.72)" class="st3 st4">23</text>
		<text transform="matrix(1 0 0 1 638.6201 135.1)" class="st3 st4">16</text>
		<text transform="matrix(1 0 0 1 682.2201 49.91)" class="st3 st4">35</text>
		<line class="st5" x1="8.2" y1="208.8" x2="714.5" y2="208.8"/>
	</g>
</g>
</svg>
