<?xml version="1.0" encoding="utf-8"?>
<!-- Generator: Adobe Illustrator 27.0.0, SVG Export Plug-In . SVG Version: 6.00 Build 0)  -->
<svg version="1.1" id="Layer_1" xmlns="http://www.w3.org/2000/svg" xmlns:xlink="http://www.w3.org/1999/xlink" x="0px" y="0px"
	 viewBox="0 0 720 275" style="enable-background:new 0 0 720 275;" xml:space="preserve">
<style type="text/css">
	.st0{fill:none;stroke:#FFFFFF;stroke-width:1.07;stroke-linejoin:round;stroke-miterlimit:10;}
	.st1{fill:#D3D3D3;}
	.st2{fill-opacity:0.84;}
	.st3{font-family:'ArialMT';}
	.st4{font-size:11.04px;}
	.st5{fill:none;stroke:#000000;stroke-width:1.07;stroke-linejoin:round;stroke-miterlimit:10;}
</style>
<g>
	<g>
		<line class="st0" x1="8.2" y1="208.8" x2="714.5" y2="208.8"/>
		<rect x="19.1" y="101.8" class="st1" width="30.5" height="107"/>
		<rect x="62.7" y="129.6" class="st1" width="30.5" height="79.2"/>
		<rect x="106.3" y="181.1" class="st1" width="30.5" height="27.7"/>
		<rect x="149.9" y="82" class="st1" width="30.5" height="126.8"/>
		<rect x="193.5" y="129.6" class="st1" width="30.5" height="79.2"/>
		<rect x="237.1" y="38.4" class="st1" width="30.5" height="170.4"/>
		<rect x="280.7" y="189" class="st1" width="30.5" height="19.8"/>
		<rect x="324.3" y="105.8" class="st1" width="30.5" height="103"/>
		<rect x="367.9" y="109.8" class="st1" width="30.5" height="99.1"/>
		<rect x="411.5" y="78.1" class="st2" width="30.5" height="130.8"/>
		<rect x="455.1" y="121.6" class="st1" width="30.5" height="87.2"/>
		<rect x="498.7" y="177.1" class="st1" width="30.5" height="31.7"/>
		<rect x="542.3" y="196.9" class="st1" width="30.5" height="11.9"/>
		<rect x="585.9" y="173.2" class="st1" width="30.5" height="35.7"/>
		<rect x="629.5" y="137.5" class="st1" width="30.5" height="71.3"/>
		<rect x="673.1" y="113.7" class="st1" width="30.5" height="95.1"/>
		<text transform="matrix(1 0 0 1 28.2401 99.86)" class="st3 st4">27</text>
		<text transform="matrix(1 0 0 1 71.8401 127.6)" class="st3 st4">20</text>
		<text transform="matrix(1 0 0 1 118.51 179.11)" class="st3 st4">7</text>
		<text transform="matrix(1 0 0 1 159.04 80.04)" class="st3 st4">32</text>
		<text transform="matrix(1 0 0 1 202.6301 127.6)" class="st3 st4">20</text>
		<text transform="matrix(1 0 0 1 246.2301 36.45)" class="st3 st4">43</text>
		<text transform="matrix(1 0 0 1 292.9 187.04)" class="st3 st4">5</text>
		<text transform="matrix(1 0 0 1 333.4301 103.82)" class="st3 st4">26</text>
		<text transform="matrix(1 0 0 1 377.0301 107.78)" class="st3 st4">25</text>
		<text transform="matrix(1 0 0 1 420.6301 76.08)" class="st3 st4">33</text>
		<text transform="matrix(1 0 0 1 464.2301 119.67)" class="st3 st4">22</text>
		<text transform="matrix(1 0 0 1 510.9 175.15)" class="st3 st4">8</text>
		<text transform="matrix(1 0 0 1 554.49 194.96)" class="st3 st4">3</text>
		<text transform="matrix(1 0 0 1 598.0901 171.19)" class="st3 st4">9</text>
		<text transform="matrix(1 0 0 1 638.6201 135.52)" class="st3 st4">18</text>
		<text transform="matrix(1 0 0 1 682.2201 111.75)" class="st3 st4">24</text>
		<line class="st5" x1="8.2" y1="208.8" x2="714.5" y2="208.8"/>
	</g>
</g>
</svg>
