<?xml version="1.0" encoding="UTF-8"?>
<svg id="Layer_1" data-name="Layer 1" xmlns="http://www.w3.org/2000/svg" version="1.1" viewBox="0 0 497.7 200.7">
  <defs>
    <style>
      .cls-1 {
        fill: #fff;
        font-family: ArialMT, Arial;
        font-size: 11.4px;
        isolation: isolate;
      }

      .cls-2 {
        fill: #d3d3d3;
        stroke-width: 0px;
      }

      .cls-3 {
        fill: none;
        stroke: #000;
        stroke-linejoin: round;
        stroke-width: 1.1px;
      }
    </style>
  </defs>
  <rect class="cls-2" x="12.8" y="120.3" width="31" height="43.2"/>
  <rect class="cls-2" x="57.1" y="82.4" width="31" height="81.1"/>
  <rect class="cls-2" x="101.4" y="87.1" width="31" height="76.4"/>
  <rect class="cls-2" x="145.7" y="101.7" width="31" height="61.8"/>
  <rect class="cls-2" x="189.9" y="133.4" width="31" height="30.1"/>
  <rect class="cls-2" x="234.2" y="103.3" width="31" height="60.2"/>
  <rect class="cls-2" x="278.5" y="102.5" width="31" height="61"/>
  <rect class="cls-2" x="322.8" y="105.6" width="31" height="57.9"/>
  <rect class="cls-2" x="367" y="42.3" width="31" height="121.2"/>
  <rect class="cls-2" x="411.3" y="121" width="31" height="42.5"/>
  <rect class="cls-2" x="455.6" y="127.2" width="31" height="36.3"/>
  <text class="cls-1" transform="translate(22 118.2)"><tspan x="0" y="0">56</tspan></text>
  <text class="cls-1" transform="translate(63.1 80.4)"><tspan x="0" y="0">105</tspan></text>
  <text class="cls-1" transform="translate(110.6 85)"><tspan x="0" y="0">99</tspan></text>
  <text class="cls-1" transform="translate(154.8 99.7)"><tspan x="0" y="0">80</tspan></text>
  <text class="cls-1" transform="translate(199.1 131.3)"><tspan x="0" y="0">39</tspan></text>
  <text class="cls-1" transform="translate(243.4 101.2)"><tspan x="0" y="0">78</tspan></text>
  <text class="cls-1" transform="translate(287.7 100.5)"><tspan x="0" y="0">79</tspan></text>
  <text class="cls-1" transform="translate(331.9 103.6)"><tspan x="0" y="0">75</tspan></text>
  <text class="cls-1" transform="translate(373 40.3)"><tspan x="0" y="0">157</tspan></text>
  <text class="cls-1" transform="translate(420.5 119)"><tspan x="0" y="0">55</tspan></text>
  <text class="cls-1" transform="translate(464.8 125.2)"><tspan x="0" y="0">47</tspan></text>
  <line class="cls-3" y1="163.5" x2="497.7" y2="163.5"/>
</svg>