<?xml version="1.0" encoding="utf-8"?>
<!-- Generator: Adobe Illustrator 27.0.0, SVG Export Plug-In . SVG Version: 6.00 Build 0)  -->
<svg version="1.1" id="Layer_1" xmlns="http://www.w3.org/2000/svg" xmlns:xlink="http://www.w3.org/1999/xlink" x="0px" y="0px"
	 viewBox="0 0 720 275" style="enable-background:new 0 0 720 275;" xml:space="preserve">
<style type="text/css">
	.st0{fill:none;stroke:#FFFFFF;stroke-width:1.07;stroke-linejoin:round;stroke-miterlimit:10;}
	.st1{fill:#D3D3D3;}
	.st2{fill-opacity:0.84;}
	.st3{fill:none;stroke:#000000;stroke-width:1.07;stroke-linejoin:round;stroke-miterlimit:10;}
</style>
<g>
	<g>
		<line class="st0" x1="8.2" y1="208.8" x2="714.5" y2="208.8"/>
		<path class="st0" d="M8.2-118.8"/>
		<rect x="19.1" y="143.3" class="st1" width="30.5" height="65.5"/>
		<rect x="62.7" y="153.1" class="st1" width="30.5" height="55.7"/>
		<rect x="106.3" y="123.6" class="st1" width="30.5" height="85.2"/>
		<rect x="149.9" y="179.3" class="st1" width="30.5" height="29.5"/>
		<rect x="193.5" y="140" class="st1" width="30.5" height="68.8"/>
		<rect x="237.1" y="38.4" class="st1" width="30.5" height="170.4"/>
		<rect x="280.7" y="133.5" class="st1" width="30.5" height="75.4"/>
		<rect x="324.3" y="113.8" class="st1" width="30.5" height="95"/>
		<rect x="367.9" y="64.6" class="st1" width="30.5" height="144.2"/>
		<rect x="411.5" y="104" class="st1" width="30.5" height="104.9"/>
		<rect x="455.1" y="51.5" class="st2" width="30.5" height="157.3"/>
		<rect x="498.7" y="97.4" class="st1" width="30.5" height="111.4"/>
		<rect x="542.3" y="71.2" class="st1" width="30.5" height="137.6"/>
		<rect x="585.9" y="133.5" class="st1" width="30.5" height="75.4"/>
		<rect x="629.5" y="84.3" class="st1" width="30.5" height="124.5"/>
		<rect x="673.1" y="195.7" class="st1" width="30.5" height="13.1"/>
		<line class="st3" x1="8.2" y1="208.8" x2="714.5" y2="208.8"/>
	</g>
</g>
</svg>
