<?xml version="1.0" encoding="UTF-8"?>
<svg id="Layer_1" data-name="Layer 1" xmlns="http://www.w3.org/2000/svg" version="1.1" viewBox="0 0 720 200.7">
  <defs>
    <style>
      .cls-1 {
        fill: #fff;
        font-family: ArialMT, Arial;
        font-size: 11.4px;
      }

      .cls-1, .cls-2 {
        isolation: isolate;
      }

      .cls-3 {
        fill: #d3d3d3;
        stroke-width: 0px;
      }

      .cls-4 {
        fill: none;
        stroke: #000;
        stroke-linejoin: round;
        stroke-width: 1.1px;
      }
    </style>
  </defs>
  <rect class="cls-3" x="123.9" y="120.3" width="31" height="43.2"/>
  <rect class="cls-3" x="168.2" y="82.4" width="31" height="81.1"/>
  <rect class="cls-3" x="212.5" y="87.1" width="31" height="76.4"/>
  <rect class="cls-3" x="256.8" y="101.7" width="31" height="61.8"/>
  <rect class="cls-3" x="301" y="133.4" width="31" height="30.1"/>
  <rect class="cls-3" x="345.3" y="103.3" width="31" height="60.2"/>
  <rect class="cls-3" x="389.6" y="102.5" width="31" height="61"/>
  <rect class="cls-3" x="433.9" y="105.6" width="31" height="57.9"/>
  <rect class="cls-3" x="478.1" y="42.3" width="31" height="121.2"/>
  <rect class="cls-3" x="522.4" y="121" width="31" height="42.5"/>
  <rect class="cls-3" x="566.8" y="127.2" width="31" height="36.3"/>
  <g class="cls-2">
    <text class="cls-1" transform="translate(133.1 118.2)"><tspan x="0" y="0">56</tspan></text>
  </g>
  <g class="cls-2">
    <text class="cls-1" transform="translate(174.2 80.4)"><tspan x="0" y="0">105</tspan></text>
  </g>
  <g class="cls-2">
    <text class="cls-1" transform="translate(221.8 85)"><tspan x="0" y="0">99</tspan></text>
  </g>
  <g class="cls-2">
    <text class="cls-1" transform="translate(265.9 99.7)"><tspan x="0" y="0">80</tspan></text>
  </g>
  <g class="cls-2">
    <text class="cls-1" transform="translate(310.2 131.3)"><tspan x="0" y="0">39</tspan></text>
  </g>
  <g class="cls-2">
    <text class="cls-1" transform="translate(354.5 101.2)"><tspan x="0" y="0">78</tspan></text>
  </g>
  <g class="cls-2">
    <text class="cls-1" transform="translate(398.9 100.5)"><tspan x="0" y="0">79</tspan></text>
  </g>
  <g class="cls-2">
    <text class="cls-1" transform="translate(443 103.6)"><tspan x="0" y="0">75</tspan></text>
  </g>
  <g class="cls-2">
    <text class="cls-1" transform="translate(484.1 40.3)"><tspan x="0" y="0">157</tspan></text>
  </g>
  <g class="cls-2">
    <text class="cls-1" transform="translate(531.6 119)"><tspan x="0" y="0">55</tspan></text>
  </g>
  <g class="cls-2">
    <text class="cls-1" transform="translate(575.9 125.2)"><tspan x="0" y="0">47</tspan></text>
  </g>
  <line class="cls-4" x1="111.1" y1="163.5" x2="608.9" y2="163.5"/>
</svg>