<?xml version="1.0" encoding="UTF-8"?>
<svg id="Layer_1" data-name="Layer 1" xmlns="http://www.w3.org/2000/svg" xmlns:xlink="http://www.w3.org/1999/xlink" version="1.1" viewBox="0 0 720 288">
  <defs>
    <style>
      .cls-1 {
        clip-path: url(#clippath);
      }

      .cls-2, .cls-3, .cls-4 {
        stroke-width: 0px;
      }

      .cls-2, .cls-5, .cls-6, .cls-7 {
        fill: none;
      }

      .cls-8 {
        stroke-linecap: round;
      }

      .cls-8, .cls-5, .cls-6, .cls-7 {
        stroke-linejoin: round;
      }

      .cls-8, .cls-5, .cls-7 {
        stroke: #fff;
      }

      .cls-8, .cls-6, .cls-7 {
        stroke-width: 1.1px;
      }

      .cls-8, .cls-4 {
        fill: #fff;
      }

      .cls-9 {
        font-size: 15px;
      }

      .cls-9, .cls-10 {
        fill: #000;
        font-family: ArialMT, Arial;
      }

      .cls-11 {
        clip-path: url(#clippath-1);
      }

      .cls-3 {
        fill: #d3d3d3;
      }

      .cls-5 {
        stroke-width: .5px;
      }

      .cls-6 {
        stroke: #000;
      }

      .cls-10 {
        font-size: 11.4px;
        isolation: isolate;
      }
    </style>
    <clipPath id="clippath">
      <rect class="cls-2" width="720" height="288"/>
    </clipPath>
    <clipPath id="clippath-1">
      <rect class="cls-2" x="2.7" width="717.3" height="288"/>
    </clipPath>
  </defs>
  <rect class="cls-4" width="720" height="288"/>
  <g class="cls-1">
    <rect class="cls-8" width="720" height="288"/>
  </g>
  <g class="cls-11">
    <g>
      <line class="cls-5" x1="2.7" y1="379.6" x2="720" y2="379.6"/>
      <line class="cls-5" x1="2.7" y1="273.4" x2="720" y2="273.4"/>
      <line class="cls-5" x1="2.7" y1="167.1" x2="720" y2="167.1"/>
      <line class="cls-5" x1="2.7" y1="60.8" x2="720" y2="60.8"/>
      <line class="cls-5" x1="2.7" y1="-45.5" x2="720" y2="-45.5"/>
      <line class="cls-7" x1="2.7" y1="326.5" x2="720" y2="326.5"/>
      <line class="cls-7" x1="2.7" y1="220.2" x2="720" y2="220.2"/>
      <line class="cls-7" x1="2.7" y1="113.9" x2="720" y2="113.9"/>
      <line class="cls-7" x1="2.7" y1="7.7" x2="720" y2="7.7"/>
      <line class="cls-7" x1="2.7" y1="-98.6" x2="720" y2="-98.6"/>
      <line class="cls-7" x1="29.3" y1="398.6" x2="29.3" y2="-113.4"/>
      <line class="cls-7" x1="73.6" y1="398.6" x2="73.6" y2="-113.4"/>
      <line class="cls-7" x1="117.9" y1="398.6" x2="117.9" y2="-113.4"/>
      <line class="cls-7" x1="162.1" y1="398.6" x2="162.1" y2="-113.4"/>
      <line class="cls-7" x1="250.7" y1="398.6" x2="250.7" y2="-113.4"/>
      <line class="cls-7" x1="295" y1="398.6" x2="295" y2="-113.4"/>
      <line class="cls-7" x1="339.2" y1="398.6" x2="339.2" y2="-113.4"/>
      <line class="cls-7" x1="383.5" y1="398.6" x2="383.5" y2="-113.4"/>
      <line class="cls-7" x1="427.8" y1="398.6" x2="427.8" y2="-113.4"/>
      <line class="cls-7" x1="472.1" y1="398.6" x2="472.1" y2="-113.4"/>
      <line class="cls-7" x1="516.3" y1="398.6" x2="516.3" y2="-113.4"/>
      <line class="cls-7" x1="560.6" y1="398.6" x2="560.6" y2="-113.4"/>
      <line class="cls-7" x1="604.9" y1="398.6" x2="604.9" y2="-113.4"/>
      <line class="cls-7" x1="649.2" y1="398.6" x2="649.2" y2="-113.4"/>
      <line class="cls-7" x1="693.4" y1="398.6" x2="693.4" y2="-113.4"/>
      <rect class="cls-3" x="13.8" y="132" width="31" height="88.2"/>
      <rect class="cls-3" x="58.1" y="120.3" width="31" height="99.9"/>
      <rect class="cls-3" x="102.4" y="152.2" width="31" height="68"/>
      <rect class="cls-3" x="146.6" y="123.5" width="31" height="96.7"/>
      <rect class="cls-3" x="190.9" y="185.1" width="31" height="35.1"/>
      <rect class="cls-3" x="235.2" y="65.1" width="31" height="155.2"/>
      <rect class="cls-3" x="279.5" y="161.8" width="31" height="58.4"/>
      <rect class="cls-3" x="323.7" y="183" width="31" height="37.2"/>
      <rect class="cls-3" x="368" y="172.4" width="31" height="47.8"/>
      <rect class="cls-3" x="412.3" y="134.1" width="31" height="86.1"/>
      <rect class="cls-3" x="456.6" y="105.4" width="31" height="114.8"/>
      <rect class="cls-3" x="500.8" y="71.4" width="31" height="148.8"/>
      <rect class="cls-3" x="545.1" y="96.9" width="31" height="123.3"/>
      <rect class="cls-3" x="589.4" y="73.6" width="31" height="146.7"/>
      <rect class="cls-3" x="633.7" y="74.6" width="31" height="145.6"/>
      <rect class="cls-3" x="677.9" y="146.9" width="31" height="73.3"/>
      <text class="cls-10" transform="translate(23 130)"><tspan x="0" y="0">83</tspan></text>
      <text class="cls-10" transform="translate(67.3 118.3)"><tspan x="0" y="0">94</tspan></text>
      <text class="cls-10" transform="translate(111.5 150.1)"><tspan x="0" y="0">64</tspan></text>
      <text class="cls-10" transform="translate(155.8 121.5)"><tspan x="0" y="0">91</tspan></text>
      <text class="cls-10" transform="translate(200.1 183.1)"><tspan x="0" y="0">33</tspan></text>
      <text class="cls-10" transform="translate(288.6 159.7)"><tspan x="0" y="0">55</tspan></text>
      <text class="cls-10" transform="translate(332.9 181)"><tspan x="0" y="0">35</tspan></text>
      <text class="cls-10" transform="translate(377.2 170.4)"><tspan x="0" y="0">45</tspan></text>
      <text class="cls-10" transform="translate(421.5 132.1)"><tspan x="0" y="0">81</tspan></text>
      <text class="cls-10" transform="translate(462.6 103.4)"><tspan x="0" y="0">108</tspan></text>
      <text class="cls-10" transform="translate(506.8 69.4)"><tspan x="0" y="0">140</tspan></text>
      <text class="cls-10" transform="translate(551.5 94.9)"><tspan x="0" y="0">116</tspan></text>
      <text class="cls-10" transform="translate(595.4 71.5)"><tspan x="0" y="0">138</tspan></text>
      <text class="cls-10" transform="translate(639.7 72.6)"><tspan x="0" y="0">137</tspan></text>
      <text class="cls-10" transform="translate(687.1 144.8)"><tspan x="0" y="0">69</tspan></text>
      <line class="cls-6" x1="2.7" y1="220.2" x2="720" y2="220.2"/>
    </g>
  </g>
  <text class="cls-9" transform="translate(236.7 62.5)"><tspan x="0" y="0">146</tspan></text>
</svg>