<?xml version="1.0" encoding="utf-8"?>
<!-- Generator: Adobe Illustrator 27.0.0, SVG Export Plug-In . SVG Version: 6.00 Build 0)  -->
<svg version="1.1" id="Layer_1" xmlns="http://www.w3.org/2000/svg" xmlns:xlink="http://www.w3.org/1999/xlink" x="0px" y="0px"
	 viewBox="0 0 720 275" style="enable-background:new 0 0 720 275;" xml:space="preserve">
<style type="text/css">
	.st0{fill:none;stroke:#FFFFFF;stroke-width:1.07;stroke-linejoin:round;stroke-miterlimit:10;}
	.st1{fill:#D3D3D3;}
	.st2{fill-opacity:0.84;}
	.st3{fill:none;stroke:#000000;stroke-width:1.07;stroke-linejoin:round;stroke-miterlimit:10;}
</style>
<g>
	<g>
		<line class="st0" x1="8.2" y1="208.8" x2="714.5" y2="208.8"/>
		<rect x="19.1" y="107.3" class="st1" width="30.5" height="101.5"/>
		<rect x="62.7" y="92.8" class="st1" width="30.5" height="116"/>
		<rect x="106.3" y="92.8" class="st1" width="30.5" height="116"/>
		<rect x="149.9" y="38.4" class="st1" width="30.5" height="170.4"/>
		<rect x="193.5" y="143.6" class="st1" width="30.5" height="65.3"/>
		<rect x="237.1" y="190.7" class="st1" width="30.5" height="18.1"/>
		<rect x="280.7" y="179.8" class="st1" width="30.5" height="29"/>
		<rect x="324.3" y="172.6" class="st1" width="30.5" height="36.2"/>
		<rect x="367.9" y="150.8" class="st1" width="30.5" height="58"/>
		<rect x="411.5" y="74.7" class="st2" width="30.5" height="134.1"/>
		<rect x="455.1" y="42.1" class="st1" width="30.5" height="166.8"/>
		<rect x="498.7" y="121.8" class="st1" width="30.5" height="87"/>
		<rect x="542.3" y="67.4" class="st1" width="30.5" height="141.4"/>
		<rect x="585.9" y="121.8" class="st1" width="30.5" height="87"/>
		<rect x="629.5" y="56.6" class="st1" width="30.5" height="152.3"/>
		<rect x="673.1" y="92.8" class="st1" width="30.5" height="116"/>
		<line class="st3" x1="8.2" y1="208.8" x2="714.5" y2="208.8"/>
	</g>
</g>
</svg>
