<?xml version="1.0" encoding="utf-8"?>
<!-- Generator: Adobe Illustrator 27.0.0, SVG Export Plug-In . SVG Version: 6.00 Build 0)  -->
<svg version="1.1" id="Layer_1" xmlns="http://www.w3.org/2000/svg" xmlns:xlink="http://www.w3.org/1999/xlink" x="0px" y="0px"
	 viewBox="0 0 720 275" style="enable-background:new 0 0 720 275;" xml:space="preserve">
<style type="text/css">
	.st0{fill:none;stroke:#FFFFFF;stroke-width:1.07;stroke-linejoin:round;stroke-miterlimit:10;}
	.st1{fill:#D3D3D3;}
	.st2{fill-opacity:0.84;}
	.st3{font-family:'ArialMT';}
	.st4{font-size:11.04px;}
	.st5{fill:none;stroke:#000000;stroke-width:1.07;stroke-linejoin:round;stroke-miterlimit:10;}
</style>
<g>
	<g>
		<line class="st0" x1="8.2" y1="208.8" x2="714.5" y2="208.8"/>
		<rect x="19.1" y="198.6" class="st1" width="30.5" height="10.2"/>
		<rect x="62.7" y="178.2" class="st1" width="30.5" height="30.7"/>
		<rect x="106.3" y="167.9" class="st1" width="30.5" height="40.9"/>
		<rect x="149.9" y="154.3" class="st1" width="30.5" height="54.5"/>
		<rect x="193.5" y="137.3" class="st1" width="30.5" height="71.6"/>
		<rect x="237.1" y="137.3" class="st1" width="30.5" height="71.6"/>
		<rect x="280.7" y="127" class="st1" width="30.5" height="81.8"/>
		<rect x="324.3" y="120.2" class="st1" width="30.5" height="88.6"/>
		<rect x="367.9" y="113.4" class="st1" width="30.5" height="95.4"/>
		<rect x="411.5" y="99.8" class="st1" width="30.5" height="109.1"/>
		<rect x="455.1" y="93" class="st1" width="30.5" height="115.9"/>
		<rect x="498.7" y="86.1" class="st1" width="30.5" height="122.7"/>
		<rect x="542.3" y="82.7" class="st1" width="30.5" height="126.1"/>
		<rect x="585.9" y="82.7" class="st2" width="30.5" height="126.1"/>
		<rect x="629.5" y="69.1" class="st1" width="30.5" height="139.7"/>
		<rect x="673.1" y="38.4" class="st1" width="30.5" height="170.4"/>
		<text transform="matrix(1 0 0 1 31.3101 196.63)" class="st3 st4">3</text>
		<text transform="matrix(1 0 0 1 74.91 176.18)" class="st3 st4">9</text>
		<text transform="matrix(1 0 0 1 115.4401 165.95)" class="st3 st4">12</text>
		<text transform="matrix(1 0 0 1 159.04 152.32)" class="st3 st4">16</text>
		<text transform="matrix(1 0 0 1 202.6301 135.28)" class="st3 st4">21</text>
		<text transform="matrix(1 0 0 1 246.2301 135.28)" class="st3 st4">21</text>
		<text transform="matrix(1 0 0 1 289.8301 125.06)" class="st3 st4">24</text>
		<text transform="matrix(1 0 0 1 333.4301 118.24)" class="st3 st4">26</text>
		<text transform="matrix(1 0 0 1 377.0301 111.43)" class="st3 st4">28</text>
		<text transform="matrix(1 0 0 1 420.6301 97.8)" class="st3 st4">32</text>
		<text transform="matrix(1 0 0 1 464.2301 90.98)" class="st3 st4">34</text>
		<text transform="matrix(1 0 0 1 507.8301 84.17)" class="st3 st4">36</text>
		<text transform="matrix(1 0 0 1 551.4202 80.76)" class="st3 st4">37</text>
		<text transform="matrix(1 0 0 1 595.02 80.76)" class="st3 st4">37</text>
		<text transform="matrix(1 0 0 1 638.6201 67.13)" class="st3 st4">41</text>
		<text transform="matrix(1 0 0 1 682.2201 36.45)" class="st3 st4">50</text>
		<line class="st5" x1="8.2" y1="208.8" x2="714.5" y2="208.8"/>
	</g>
</g>
</svg>
