<?xml version="1.0" encoding="UTF-8"?>
<svg id="Layer_1" data-name="Layer 1" xmlns="http://www.w3.org/2000/svg" xmlns:xlink="http://www.w3.org/1999/xlink" version="1.1" viewBox="0 0 720 288">
  <defs>
    <style>
      .cls-1 {
        clip-path: url(#clippath);
      }

      .cls-2, .cls-3, .cls-4 {
        stroke-width: 0px;
      }

      .cls-2, .cls-5, .cls-6, .cls-7 {
        fill: none;
      }

      .cls-8 {
        stroke-linecap: round;
      }

      .cls-8, .cls-9, .cls-4 {
        fill: #fff;
      }

      .cls-8, .cls-5, .cls-6, .cls-7 {
        stroke-linejoin: round;
      }

      .cls-8, .cls-5, .cls-7 {
        stroke: #fff;
      }

      .cls-8, .cls-6, .cls-7 {
        stroke-width: 1.1px;
      }

      .cls-10 {
        clip-path: url(#clippath-1);
      }

      .cls-9 {
        font-family: ArialMT, Arial;
        font-size: 11.4px;
        isolation: isolate;
      }

      .cls-3 {
        fill: #d3d3d3;
      }

      .cls-5 {
        stroke-width: .5px;
      }

      .cls-6 {
        stroke: #000;
      }
    </style>
    <clipPath id="clippath">
      <rect class="cls-2" width="720" height="288"/>
    </clipPath>
    <clipPath id="clippath-1">
      <rect class="cls-2" x="2.7" width="717.3" height="288"/>
    </clipPath>
  </defs>
  <rect class="cls-4" width="720" height="288"/>
  <g class="cls-1">
    <rect class="cls-8" width="720" height="288"/>
  </g>
  <g class="cls-10">
    <g>
      <line class="cls-5" x1="2.7" y1="297.4" x2="720" y2="297.4"/>
      <line class="cls-5" x1="2.7" y1="143" x2="720" y2="143"/>
      <line class="cls-5" x1="2.7" y1="-11.4" x2="720" y2="-11.4"/>
      <line class="cls-7" x1="2.7" y1="374.6" x2="720" y2="374.6"/>
      <line class="cls-7" x1="2.7" y1="220.2" x2="720" y2="220.2"/>
      <line class="cls-7" x1="2.7" y1="65.8" x2="720" y2="65.8"/>
      <line class="cls-7" x1="2.7" y1="-88.6" x2="720" y2="-88.6"/>
      <line class="cls-7" x1="29.3" y1="398.6" x2="29.3" y2="-113.4"/>
      <line class="cls-7" x1="73.6" y1="398.6" x2="73.6" y2="-113.4"/>
      <line class="cls-7" x1="117.9" y1="398.6" x2="117.9" y2="-113.4"/>
      <line class="cls-7" x1="162.1" y1="398.6" x2="162.1" y2="-113.4"/>
      <line class="cls-7" x1="206.4" y1="398.6" x2="206.4" y2="-113.4"/>
      <line class="cls-7" x1="250.7" y1="398.6" x2="250.7" y2="-113.4"/>
      <line class="cls-7" x1="295" y1="398.6" x2="295" y2="-113.4"/>
      <line class="cls-7" x1="339.2" y1="398.6" x2="339.2" y2="-113.4"/>
      <line class="cls-7" x1="383.5" y1="398.6" x2="383.5" y2="-113.4"/>
      <line class="cls-7" x1="427.8" y1="398.6" x2="427.8" y2="-113.4"/>
      <line class="cls-7" x1="472.1" y1="398.6" x2="472.1" y2="-113.4"/>
      <line class="cls-7" x1="516.3" y1="398.6" x2="516.3" y2="-113.4"/>
      <line class="cls-7" x1="560.6" y1="398.6" x2="560.6" y2="-113.4"/>
      <line class="cls-7" x1="604.9" y1="398.6" x2="604.9" y2="-113.4"/>
      <line class="cls-7" x1="649.2" y1="398.6" x2="649.2" y2="-113.4"/>
      <line class="cls-7" x1="693.4" y1="398.6" x2="693.4" y2="-113.4"/>
      <rect class="cls-3" x="146.6" y="169.3" width="31" height="50.9"/>
      <rect class="cls-3" x="190.9" y="65.1" width="31" height="155.2"/>
      <rect class="cls-3" x="235.2" y="177" width="31" height="43.2"/>
      <rect class="cls-3" x="279.5" y="139.2" width="31" height="81.1"/>
      <rect class="cls-3" x="323.7" y="143.8" width="31" height="76.4"/>
      <rect class="cls-3" x="368" y="158.5" width="31" height="61.8"/>
      <rect class="cls-3" x="412.3" y="190.1" width="31" height="30.1"/>
      <rect class="cls-3" x="456.6" y="160" width="31" height="60.2"/>
      <rect class="cls-3" x="500.8" y="159.2" width="31" height="61"/>
      <rect class="cls-3" x="545.1" y="162.3" width="31" height="57.9"/>
      <text class="cls-9" transform="translate(23 178)"><tspan x="0" y="0">52</tspan></text>
      <text class="cls-9" transform="translate(64.1 115.5)"><tspan x="0" y="0">133</tspan></text>
      <text class="cls-9" transform="translate(108.4 112.4)"><tspan x="0" y="0">137</tspan></text>
      <text class="cls-9" transform="translate(155.8 167.2)"><tspan x="0" y="0">66</tspan></text>
      <text class="cls-9" transform="translate(196.9 63)"><tspan x="0" y="0">201</tspan></text>
      <text class="cls-9" transform="translate(244.4 174.9)"><tspan x="0" y="0">56</tspan></text>
      <text class="cls-9" transform="translate(285.5 137.1)"><tspan x="0" y="0">105</tspan></text>
      <text class="cls-9" transform="translate(332.9 141.8)"><tspan x="0" y="0">99</tspan></text>
      <text class="cls-9" transform="translate(377.2 156.4)"><tspan x="0" y="0">80</tspan></text>
      <text class="cls-9" transform="translate(421.5 188.1)"><tspan x="0" y="0">39</tspan></text>
      <text class="cls-9" transform="translate(465.7 158)"><tspan x="0" y="0">78</tspan></text>
      <text class="cls-9" transform="translate(510 157.2)"><tspan x="0" y="0">79</tspan></text>
      <text class="cls-9" transform="translate(554.3 160.3)"><tspan x="0" y="0">75</tspan></text>
      <text class="cls-9" transform="translate(595.4 97)"><tspan x="0" y="0">157</tspan></text>
      <text class="cls-9" transform="translate(642.8 175.7)"><tspan x="0" y="0">55</tspan></text>
      <text class="cls-9" transform="translate(687.1 181.9)"><tspan x="0" y="0">47</tspan></text>
      <line class="cls-6" x1="137.1" y1="220.2" x2="588" y2="220.2"/>
    </g>
  </g>
</svg>