<?xml version="1.0" encoding="UTF-8"?>
<svg id="Layer_1" data-name="Layer 1" xmlns="http://www.w3.org/2000/svg" xmlns:xlink="http://www.w3.org/1999/xlink" version="1.1" viewBox="0 0 720 288">
  <defs>
    <style>
      .cls-1 {
        clip-path: url(#clippath);
      }

      .cls-2, .cls-3, .cls-4, .cls-5 {
        stroke-width: 0px;
      }

      .cls-2, .cls-6, .cls-7, .cls-8 {
        fill: none;
      }

      .cls-9 {
        stroke-linecap: round;
      }

      .cls-9, .cls-6, .cls-7, .cls-8 {
        stroke-linejoin: round;
      }

      .cls-9, .cls-6, .cls-8 {
        stroke: #fff;
      }

      .cls-9, .cls-7, .cls-8 {
        stroke-width: 1.1px;
      }

      .cls-9, .cls-5 {
        fill: #fff;
      }

      .cls-10 {
        clip-path: url(#clippath-1);
      }

      .cls-3, .cls-11 {
        fill: #000;
      }

      .cls-4 {
        fill: #d3d3d3;
      }

      .cls-6 {
        stroke-width: .5px;
      }

      .cls-7 {
        stroke: #000;
      }

      .cls-11 {
        font-family: ArialMT, Arial;
        font-size: 11.4px;
        isolation: isolate;
      }
    </style>
    <clipPath id="clippath">
      <rect class="cls-2" width="720" height="288"/>
    </clipPath>
    <clipPath id="clippath-1">
      <rect class="cls-2" x="2.7" width="717.3" height="288"/>
    </clipPath>
  </defs>
  <rect class="cls-5" width="720" height="288"/>
  <g class="cls-1">
    <rect class="cls-9" width="720" height="288"/>
  </g>
  <g class="cls-10">
    <g>
      <line class="cls-6" x1="2.7" y1="305.5" x2="720" y2="305.5"/>
      <line class="cls-6" x1="2.7" y1="135" x2="720" y2="135"/>
      <line class="cls-6" x1="2.7" y1="-35.5" x2="720" y2="-35.5"/>
      <line class="cls-8" x1="2.7" y1="390.7" x2="720" y2="390.7"/>
      <line class="cls-8" x1="2.7" y1="220.2" x2="720" y2="220.2"/>
      <line class="cls-8" x1="2.7" y1="49.7" x2="720" y2="49.7"/>
      <line class="cls-8" x1="29.3" y1="398.6" x2="29.3" y2="-113.4"/>
      <line class="cls-8" x1="73.6" y1="398.6" x2="73.6" y2="-113.4"/>
      <line class="cls-8" x1="117.9" y1="398.6" x2="117.9" y2="-113.4"/>
      <line class="cls-8" x1="162.1" y1="398.6" x2="162.1" y2="-113.4"/>
      <line class="cls-8" x1="206.4" y1="398.6" x2="206.4" y2="-113.4"/>
      <line class="cls-8" x1="250.7" y1="398.6" x2="250.7" y2="-113.4"/>
      <line class="cls-8" x1="295" y1="398.6" x2="295" y2="-113.4"/>
      <line class="cls-8" x1="339.2" y1="398.6" x2="339.2" y2="-113.4"/>
      <line class="cls-8" x1="383.5" y1="398.6" x2="383.5" y2="-113.4"/>
      <line class="cls-8" x1="427.8" y1="398.6" x2="427.8" y2="-113.4"/>
      <line class="cls-8" x1="472.1" y1="398.6" x2="472.1" y2="-113.4"/>
      <line class="cls-8" x1="516.3" y1="398.6" x2="516.3" y2="-113.4"/>
      <line class="cls-8" x1="560.6" y1="398.6" x2="560.6" y2="-113.4"/>
      <line class="cls-8" x1="604.9" y1="398.6" x2="604.9" y2="-113.4"/>
      <line class="cls-8" x1="649.2" y1="398.6" x2="649.2" y2="-113.4"/>
      <line class="cls-8" x1="693.4" y1="398.6" x2="693.4" y2="-113.4"/>
      <rect class="cls-4" x="13.8" y="158" width="31" height="62.2"/>
      <rect class="cls-4" x="58.1" y="144.3" width="31" height="75.9"/>
      <rect class="cls-3" x="102.4" y="177.6" width="31" height="42.6"/>
      <rect class="cls-4" x="146.6" y="181" width="31" height="39.2"/>
      <rect class="cls-4" x="190.9" y="175.9" width="31" height="44.3"/>
      <rect class="cls-4" x="235.2" y="136.7" width="31" height="83.6"/>
      <rect class="cls-4" x="279.5" y="183.6" width="31" height="36.7"/>
      <rect class="cls-4" x="323.7" y="202.3" width="31" height="17.9"/>
      <rect class="cls-4" x="368" y="127.3" width="31" height="92.9"/>
      <rect class="cls-4" x="412.3" y="201.4" width="31" height="18.8"/>
      <rect class="cls-4" x="456.6" y="65.1" width="31" height="155.2"/>
      <rect class="cls-3" x="500.8" y="122.2" width="31" height="98"/>
      <rect class="cls-4" x="545.1" y="88.9" width="31" height="131.3"/>
      <rect class="cls-4" x="589.4" y="200.6" width="31" height="19.6"/>
      <rect class="cls-4" x="633.7" y="152" width="31" height="68.2"/>
      <rect class="cls-4" x="677.9" y="139.2" width="31" height="81"/>
      <text class="cls-11" transform="translate(23 155.9)"><tspan x="0" y="0">73</tspan></text>
      <text class="cls-11" transform="translate(67.3 142.3)"><tspan x="0" y="0">89</tspan></text>
      <text class="cls-11" transform="translate(111.5 175.5)"><tspan x="0" y="0">50</tspan></text>
      <text class="cls-11" transform="translate(155.8 179)"><tspan x="0" y="0">46</tspan></text>
      <text class="cls-11" transform="translate(200.1 173.8)"><tspan x="0" y="0">52</tspan></text>
      <text class="cls-11" transform="translate(244.4 134.6)"><tspan x="0" y="0">98</tspan></text>
      <text class="cls-11" transform="translate(288.6 181.5)"><tspan x="0" y="0">43</tspan></text>
      <text class="cls-11" transform="translate(332.9 200.3)"><tspan x="0" y="0">21</tspan></text>
      <text class="cls-11" transform="translate(374 125.2)"><tspan x="0" y="0">109</tspan></text>
      <text class="cls-11" transform="translate(421.5 199.4)"><tspan x="0" y="0">22</tspan></text>
      <text class="cls-11" transform="translate(462.6 63)"><tspan x="0" y="0">182</tspan></text>
      <text class="cls-11" transform="translate(507.3 120.1)"><tspan x="0" y="0">115</tspan></text>
      <text class="cls-11" transform="translate(551.1 86.9)"><tspan x="0" y="0">154</tspan></text>
      <text class="cls-11" transform="translate(598.6 198.6)"><tspan x="0" y="0">23</tspan></text>
      <text class="cls-11" transform="translate(642.8 150)"><tspan x="0" y="0">80</tspan></text>
      <text class="cls-11" transform="translate(687.1 137.2)"><tspan x="0" y="0">95</tspan></text>
      <line class="cls-7" x1="2.7" y1="220.2" x2="720" y2="220.2"/>
    </g>
  </g>
</svg>