<?xml version="1.0" encoding="utf-8"?>
<!-- Generator: Adobe Illustrator 27.0.0, SVG Export Plug-In . SVG Version: 6.00 Build 0)  -->
<svg version="1.1" id="Layer_1" xmlns="http://www.w3.org/2000/svg" xmlns:xlink="http://www.w3.org/1999/xlink" x="0px" y="0px"
	 viewBox="0 0 615.8 354" style="enable-background:new 0 0 615.8 354;" xml:space="preserve">
<style type="text/css">
	.st0{fill:#D3D3D3;}
	.st1{fill:#1F008A;}
	.st2{fill:none;stroke:#000000;stroke-width:1.07;stroke-linejoin:round;stroke-miterlimit:10;}
	.st3{font-family:'ArialMT';}
	.st4{font-size:16px;}
	.st5{font-size:24px;}
	.st6{fill:none;stroke:#000000;stroke-width:0.5;stroke-miterlimit:10;}
	.st7{font-size:12px;}
	.st8{font-size:18px;}
	.st9{font-size:13.1445px;}
	.st10{font-family:'Arial-BoldMT';}
</style>
<g>
	<g>
		<g>
			<rect x="19.1" y="257.2" class="st0" width="30.5" height="35.6"/>
			<rect x="62.7" y="267.4" class="st0" width="30.5" height="25.4"/>
			<rect x="106.3" y="135.1" class="st1" width="30.5" height="157.7"/>
			<rect x="149.9" y="198.7" class="st0" width="30.5" height="94.1"/>
			<rect x="193.5" y="211.4" class="st0" width="30.5" height="81.4"/>
			<rect x="237.1" y="180.9" class="st0" width="30.5" height="111.9"/>
			<rect x="280.7" y="231.8" class="st0" width="30.5" height="61"/>
			<rect x="324.3" y="234.3" class="st0" width="30.5" height="58.5"/>
			<rect x="367.9" y="229.2" class="st0" width="30.5" height="63.6"/>
			<rect x="411.5" y="176" class="st0" width="30.5" height="116.8"/>
			<rect x="455.1" y="267.4" class="st0" width="30.5" height="25.4"/>
			<rect x="498.7" y="229.2" class="st0" width="30.5" height="63.6"/>
			<rect x="542.3" y="178.4" class="st0" width="30.5" height="114.4"/>
			<line class="st2" x1="8.2" y1="292.8" x2="588.2" y2="292.8"/>
		</g>
	</g>
</g>
<text transform="matrix(1 0 0 1 26.2228 92.2567)" class="st1 st3 st4">Data collected during a holiday</text>
<text transform="matrix(1 0 0 1 412.4382 172.8148)" class="st3 st5">45</text>
<text transform="matrix(1 0 0 1 300.5886 107.5558)" class="st1 st3 st4">Number of cars observed during this day</text>
<g>
	<path class="st6" d="M426.6,149.4c0-13,0-26,0-39.1"/>
	<path class="st6" d="M446.2,110.4c-13,0-26,0-39.1,0"/>
</g>
<g>
	<path class="st6" d="M121.9,134.8c0-12.8,0-25.6,0-38.5"/>
	<path class="st6" d="M141.5,96.4c-13,0-26,0-39.1,0"/>
</g>
<text transform="matrix(1 0 0 1 464.1942 263.5153)" class="st3 st7">10</text>
<text transform="matrix(1 0 0 1 246.847 177.5649)" class="st3 st7">44</text>
<text transform="matrix(1 0 0 1 12.1016 54.6964)" class="st3 st8">Example of barchart you will see in this study</text>
<path class="st6" d="M297,320c0-7.8,0-15.6,0-23.5"/>
<path class="st6" d="M588,296.6c-192.8,0-385.7,0-580,0"/>
<text transform="matrix(1 0 0 1 168.0298 334.6592)" class="st1 st3 st9">13 bars: the study took place over</text>
<text transform="matrix(1 0 0 1 369.9298 334.6592)" class="st1 st10 st9">13 </text>
<text transform="matrix(1 0 0 1 388.2297 334.6592)" class="st1 st3 st9">days</text>
<circle class="st6" cx="426.7" cy="166" r="16.5"/>
</svg>
