<?xml version="1.0" encoding="utf-8"?>
<!-- Generator: Adobe Illustrator 27.0.0, SVG Export Plug-In . SVG Version: 6.00 Build 0)  -->
<svg version="1.1" id="Layer_1" xmlns="http://www.w3.org/2000/svg" xmlns:xlink="http://www.w3.org/1999/xlink" x="0px" y="0px"
	 viewBox="0 0 720 275" style="enable-background:new 0 0 720 275;" xml:space="preserve">
<style type="text/css">
	.st0{fill:none;stroke:#FFFFFF;stroke-width:1.07;stroke-linejoin:round;stroke-miterlimit:10;}
	.st1{fill:#D3D3D3;}
	.st2{fill-opacity:0.84;}
	.st3{font-family:'ArialMT';}
	.st4{font-size:11.04px;}
	.st5{fill:none;stroke:#000000;stroke-width:1.07;stroke-linejoin:round;stroke-miterlimit:10;}
</style>
<g>
	<g>
		<line class="st0" x1="8.2" y1="208.8" x2="714.5" y2="208.8"/>
		<rect x="19.1" y="160.1" class="st1" width="30.5" height="48.7"/>
		<rect x="62.7" y="156.7" class="st1" width="30.5" height="52.2"/>
		<rect x="106.3" y="104.5" class="st1" width="30.5" height="104.3"/>
		<rect x="149.9" y="191.4" class="st1" width="30.5" height="17.4"/>
		<rect x="193.5" y="167.1" class="st1" width="30.5" height="41.7"/>
		<rect x="237.1" y="90.6" class="st1" width="30.5" height="118.2"/>
		<rect x="280.7" y="118.4" class="st2" width="30.5" height="90.4"/>
		<rect x="324.3" y="181" class="st1" width="30.5" height="27.8"/>
		<rect x="367.9" y="121.9" class="st1" width="30.5" height="86.9"/>
		<rect x="411.5" y="104.5" class="st1" width="30.5" height="104.3"/>
		<rect x="455.1" y="146.2" class="st1" width="30.5" height="62.6"/>
		<rect x="498.7" y="108" class="st1" width="30.5" height="100.9"/>
		<rect x="542.3" y="184.5" class="st1" width="30.5" height="24.3"/>
		<rect x="585.9" y="38.4" class="st1" width="30.5" height="170.4"/>
		<rect x="629.5" y="153.2" class="st1" width="30.5" height="55.6"/>
		<rect x="673.1" y="156.7" class="st1" width="30.5" height="52.2"/>
		<text transform="matrix(1 0 0 1 28.2401 158.17)" class="st3 st4">14</text>
		<text transform="matrix(1 0 0 1 71.8401 154.69)" class="st3 st4">15</text>
		<text transform="matrix(1 0 0 1 115.4401 102.53)" class="st3 st4">30</text>
		<text transform="matrix(1 0 0 1 162.11 189.46)" class="st3 st4">5</text>
		<text transform="matrix(1 0 0 1 202.6301 165.12)" class="st3 st4">12</text>
		<text transform="matrix(1 0 0 1 246.2301 88.62)" class="st3 st4">34</text>
		<text transform="matrix(1 0 0 1 289.8301 116.44)" class="st3 st4">26</text>
		<text transform="matrix(1 0 0 1 336.5001 179.03)" class="st3 st4">8</text>
		<text transform="matrix(1 0 0 1 377.0301 119.91)" class="st3 st4">25</text>
		<text transform="matrix(1 0 0 1 420.6301 102.53)" class="st3 st4">30</text>
		<text transform="matrix(1 0 0 1 464.2301 144.26)" class="st3 st4">18</text>
		<text transform="matrix(1 0 0 1 507.8301 106)" class="st3 st4">29</text>
		<text transform="matrix(1 0 0 1 554.49 182.51)" class="st3 st4">7</text>
		<text transform="matrix(1 0 0 1 595.02 36.45)" class="st3 st4">49</text>
		<text transform="matrix(1 0 0 1 638.6201 151.21)" class="st3 st4">16</text>
		<text transform="matrix(1 0 0 1 682.2201 154.69)" class="st3 st4">15</text>
		<line class="st5" x1="8.2" y1="208.8" x2="714.5" y2="208.8"/>
	</g>
</g>
</svg>
