<?xml version="1.0" encoding="UTF-8"?>
<svg id="Layer_1" data-name="Layer 1" xmlns="http://www.w3.org/2000/svg" viewBox="0 0 1101.66 733.17">
  <defs>
    <style>
      .cls-1 {
        font-size: 28px;
      }

      .cls-1, .cls-2 {
        font-family: Roboto-Bold, Roboto;
        font-weight: 700;
      }

      .cls-1, .cls-2, .cls-3, .cls-4 {
        fill: #231f20;
      }

      .cls-2, .cls-4 {
        font-size: 24px;
      }

      .cls-5 {
        fill: #efe8ea;
      }

      .cls-5, .cls-6, .cls-7 {
        stroke: #231f20;
        stroke-miterlimit: 10;
      }

      .cls-3 {
        stroke-width: 0px;
      }

      .cls-4 {
        font-family: MyriadPro-Regular, 'Myriad Pro';
      }

      .cls-6 {
        stroke-width: 7px;
      }

      .cls-6, .cls-7 {
        fill: none;
      }

      .cls-7 {
        stroke-dasharray: 0 0 0 0 1.99 1.99 1.99 1.99;
      }
    </style>
  </defs>
  <circle class="cls-7" cx="562.43" cy="323.54" r="207"/>
  <path class="cls-5" d="M561.54,44.91c15.08,4.3,24.21,19.85,20.39,34.73s-19.15,23.44-34.23,19.14c-15.08-4.3-24.21-19.85-20.39-34.73,3.82-14.88,19.15-23.44,34.23-19.14Z"/>
  <path class="cls-5" d="M422.35,82.69c15.21-3.81,30.89,5.09,35.02,19.88s-4.86,29.88-20.08,33.69c-15.21,3.81-30.89-5.09-35.02-19.88-4.13-14.79,4.86-29.88,20.08-33.69Z"/>
  <path class="cls-5" d="M320.69,185c11.27-10.91,29.3-11.04,40.27-.29,10.97,10.75,10.73,28.31-.54,39.22-11.27,10.91-29.3,11.04-40.27.29-10.97-10.75-10.73-28.31.54-39.22Z"/>
  <path class="cls-5" d="M283.8,324.43c4.3-15.08,19.85-24.21,34.73-20.39,14.88,3.82,23.44,19.15,19.14,34.23-4.3,15.08-19.85,24.21-34.73,20.39-14.88-3.82-23.44-19.15-19.14-34.23Z"/>
  <path class="cls-5" d="M321.58,463.62c-3.81-15.21,5.09-30.89,19.88-35.02,14.79-4.13,29.88,4.86,33.69,20.08,3.81,15.21-5.09,30.89-19.88,35.02-14.79,4.13-29.88-4.86-33.69-20.08Z"/>
  <path class="cls-5" d="M423.88,565.28c-10.91-11.27-11.04-29.3-.29-40.27,10.75-10.97,28.31-10.73,39.22.54,10.91,11.27,11.04,29.3.29,40.27-10.75,10.97-28.31,10.73-39.22-.54Z"/>
  <path class="cls-5" d="M563.32,602.17c-15.08-4.3-24.21-19.85-20.39-34.73,3.82-14.88,19.15-23.44,34.23-19.14,15.08,4.3,24.21,19.85,20.39,34.73-3.82,14.88-19.15,23.44-34.23,19.14Z"/>
  <path class="cls-5" d="M702.51,564.39c-15.21,3.81-30.89-5.09-35.02-19.88s4.86-29.88,20.08-33.69c15.21-3.81,30.89,5.09,35.02,19.88,4.13,14.79-4.86,29.88-20.08,33.69Z"/>
  <path class="cls-5" d="M804.17,462.08c-11.27,10.91-29.3,11.04-40.27.29-10.97-10.75-10.73-28.31.54-39.22,11.27-10.91,29.3-11.04,40.27-.29,10.97,10.75,10.73,28.31-.54,39.22Z"/>
  <path class="cls-5" d="M841.06,322.65c-4.3,15.08-19.85,24.21-34.73,20.39s-23.44-19.15-19.14-34.23c4.3-15.08,19.85-24.21,34.73-20.39,14.88,3.82,23.44,19.15,19.14,34.23Z"/>
  <path class="cls-5" d="M803.28,183.46c3.81,15.21-5.09,30.89-19.88,35.02s-29.88-4.86-33.69-20.08c-3.81-15.21,5.09-30.89,19.88-35.02,14.79-4.13,29.88,4.86,33.69,20.08Z"/>
  <path class="cls-5" d="M700.97,81.8c10.91,11.27,11.04,29.3.29,40.27-10.75,10.97-28.31,10.73-39.22-.54-10.91-11.27-11.04-29.3-.29-40.27,10.75-10.97,28.31-10.73,39.22.54Z"/>
  <text class="cls-4" transform="translate(523.03 35.38)"><tspan x="0" y="0">Hilson</tspan></text>
  <text class="cls-4" transform="translate(723.59 108.71)"><tspan x="0" y="0">Sami</tspan></text>
  <text class="cls-4" transform="translate(812.78 197.97)"><tspan x="0" y="0">Eva</tspan></text>
  <text class="cls-4" transform="translate(851.86 322.77)"><tspan x="0" y="0">Akim</tspan></text>
  <text class="cls-4" transform="translate(820.67 449.67)"><tspan x="0" y="0">Fatou</tspan></text>
  <text class="cls-4" transform="translate(733.85 544.65)"><tspan x="0" y="0">Lane</tspan></text>
  <text class="cls-4" transform="translate(337.77 116.54)"><tspan x="0" y="0">Ryan</tspan></text>
  <text class="cls-4" transform="translate(358.03 552.46)"><tspan x="0" y="0">Theo</tspan></text>
  <text class="cls-4" transform="translate(228.98 464.46)"><tspan x="0" y="0">Chantal</tspan></text>
  <text class="cls-4" transform="translate(190.28 338.39)"><tspan x="0" y="0">Damian</tspan></text>
  <text class="cls-4" transform="translate(243.18 211.77)"><tspan x="0" y="0">Annie</tspan></text>
  <text class="cls-2" transform="translate(563.36 582.25)"><tspan x="0" y="0">1</tspan></text>
  <text class="cls-1" transform="translate(448.86 712.24) scale(.99 1)"><tspan x="0" y="0">First arriving visitor</tspan></text>
  <g>
    <line class="cls-6" x1="570.24" y1="641.74" x2="570.24" y2="682.53"/>
    <polygon class="cls-3" points="570.24 617.53 556.3 651.65 570.24 643.55 584.18 651.65 570.24 617.53"/>
  </g>
</svg>