<?xml version="1.0" encoding="UTF-8"?>
<svg id="Layer_1" data-name="Layer 1" xmlns="http://www.w3.org/2000/svg" width="1101.7" height="671.9" version="1.1" viewBox="0 0 1101.7 671.9">
  <defs>
    <style>
      .cls-1 {
        fill: #efe8ea;
      }

      .cls-1, .cls-2, .cls-3, .cls-4 {
        stroke: #231f20;
        stroke-miterlimit: 10;
      }

      .cls-2 {
        stroke-dasharray: 0 0 0 0 0 0 0 0 0 0 0 0;
      }

      .cls-2, .cls-3 {
        fill: none;
      }

      .cls-5 {
        font-family: Roboto-Bold, Roboto;
        font-size: 28px;
        font-weight: 700;
      }

      .cls-5, .cls-4, .cls-6, .cls-7 {
        fill: #231f20;
      }

      .cls-5, .cls-8, .cls-6 {
        isolation: isolate;
      }

      .cls-3 {
        stroke-width: 7px;
      }

      .cls-6 {
        font-family: MyriadPro-Regular, 'Myriad Pro';
        font-size: 24px;
      }

      .cls-7 {
        stroke-width: 0px;
      }
    </style>
  </defs>
  <circle class="cls-2" cx="558.6" cy="334.1" r="207"/>
  <path class="cls-1" d="M557.8,55.5c15.1,4.3,24.2,19.8,20.4,34.7s-19.2,23.4-34.2,19.1c-15.1-4.3-24.2-19.9-20.4-34.7,3.8-14.9,19.2-23.4,34.2-19.1Z"/>
  <path class="cls-4" d="M418.6,93.2c15.2-3.8,30.9,5.1,35,19.9s-4.9,29.9-20.1,33.7-30.9-5.1-35-19.9c-4.1-14.8,4.9-29.9,20.1-33.7Z"/>
  <path class="cls-4" d="M316.9,195.5c11.3-10.9,29.3-11,40.3-.3s10.7,28.3-.5,39.2c-11.3,10.9-29.3,11-40.3.3s-10.7-28.3.5-39.2Z"/>
  <path class="cls-1" d="M280,335c4.3-15.1,19.9-24.2,34.7-20.4,14.9,3.8,23.4,19.1,19.1,34.2s-19.9,24.2-34.7,20.4-23.4-19.1-19.1-34.2h0Z"/>
  <path class="cls-1" d="M317.8,474.2c-3.8-15.2,5.1-30.9,19.9-35s29.9,4.9,33.7,20.1c3.8,15.2-5.1,30.9-19.9,35s-29.9-4.9-33.7-20.1Z"/>
  <path class="cls-1" d="M420.1,575.8c-10.9-11.3-11-29.3-.3-40.3,10.8-11,28.3-10.7,39.2.5,10.9,11.3,11,29.3.3,40.3-10.8,11-28.3,10.7-39.2-.5Z"/>
  <path class="cls-1" d="M559.5,612.7c-15.1-4.3-24.2-19.8-20.4-34.7s19.2-23.4,34.2-19.1c15.1,4.3,24.2,19.8,20.4,34.7s-19.2,23.4-34.2,19.1Z"/>
  <path class="cls-1" d="M698.7,574.9c-15.2,3.8-30.9-5.1-35-19.9s4.9-29.9,20.1-33.7c15.2-3.8,30.9,5.1,35,19.9s-4.9,29.9-20.1,33.7Z"/>
  <path class="cls-4" d="M800.4,472.6c-11.3,10.9-29.3,11-40.3.3-11-10.8-10.7-28.3.5-39.2,11.3-10.9,29.3-11,40.3-.3,11,10.8,10.7,28.3-.5,39.2h0Z"/>
  <path class="cls-1" d="M837.3,333.2c-4.3,15.1-19.8,24.2-34.7,20.4s-23.4-19.1-19.1-34.2c4.3-15.1,19.8-24.2,34.7-20.4s23.4,19.1,19.1,34.2Z"/>
  <path class="cls-1" d="M799.5,194c3.8,15.2-5.1,30.9-19.9,35s-29.9-4.9-33.7-20.1c-3.8-15.2,5.1-30.9,19.9-35s29.9,4.9,33.7,20.1h0Z"/>
  <path class="cls-1" d="M697.2,92.4c10.9,11.3,11,29.3.3,40.3s-28.3,10.7-39.2-.5c-10.9-11.3-11-29.3-.3-40.3s28.3-10.7,39.2.5h0Z"/>
  <g class="cls-8">
    <g class="cls-8">
      <text class="cls-6" transform="translate(519.2 35.9)"><tspan x="0" y="0">Hilson</tspan></text>
    </g>
  </g>
  <g class="cls-8">
    <g class="cls-8">
      <text class="cls-6" transform="translate(719.8 109.3)"><tspan x="0" y="0">Sami</tspan></text>
    </g>
  </g>
  <g class="cls-8">
    <g class="cls-8">
      <text class="cls-6" transform="translate(809 198.5)"><tspan x="0" y="0">Eva</tspan></text>
    </g>
  </g>
  <g class="cls-8">
    <g class="cls-8">
      <text class="cls-6" transform="translate(848.1 323.3)"><tspan x="0" y="0">Akim</tspan></text>
    </g>
  </g>
  <g class="cls-8">
    <g class="cls-8">
      <text class="cls-6" transform="translate(816.9 450.2)"><tspan x="0" y="0">Fatou</tspan></text>
    </g>
  </g>
  <g class="cls-8">
    <g class="cls-8">
      <text class="cls-6" transform="translate(336.8 112.2)"><tspan x="0" y="0">Lane</tspan></text>
    </g>
  </g>
  <g class="cls-8">
    <g class="cls-8">
      <text class="cls-6" transform="translate(539.9 635.5)"><tspan x="0" y="0">Ryan</tspan></text>
    </g>
  </g>
  <g class="cls-8">
    <g class="cls-8">
      <text class="cls-6" transform="translate(354.2 553)"><tspan x="0" y="0">Theo</tspan></text>
    </g>
  </g>
  <g class="cls-8">
    <g class="cls-8">
      <text class="cls-6" transform="translate(225.2 465)"><tspan x="0" y="0">Chantal</tspan></text>
    </g>
  </g>
  <g class="cls-8">
    <g class="cls-8">
      <text class="cls-6" transform="translate(186.5 338.9)"><tspan x="0" y="0">Damian</tspan></text>
    </g>
  </g>
  <g class="cls-8">
    <g class="cls-8">
      <text class="cls-6" transform="translate(239.4 212.3)"><tspan x="0" y="0">Annie</tspan></text>
    </g>
  </g>
  <g class="cls-8">
    <g class="cls-8">
      <text class="cls-5" transform="translate(782.4 627.8)"><tspan x="0" y="0">First arriving</tspan></text>
    </g>
    <g class="cls-8">
      <text class="cls-5" transform="translate(782.4 661.4)"><tspan x="0" y="0">visitor</tspan></text>
    </g>
  </g>
  <g>
    <line class="cls-3" x1="733" y1="591.5" x2="768.2" y2="640.6"/>
    <polygon class="cls-7" points="728.6 605.8 735.3 594.7 748 591.8 721.8 575.8 728.6 605.8"/>
  </g>
</svg>