<?xml version="1.0" encoding="UTF-8"?>
<svg id="Layer_1" data-name="Layer 1" xmlns="http://www.w3.org/2000/svg" viewBox="0 0 1101.66 733.17">
  <defs>
    <style>
      .cls-1 {
        font-size: 28px;
      }

      .cls-1, .cls-2 {
        font-family: Roboto-Bold, Roboto;
        font-weight: 700;
      }

      .cls-1, .cls-2, .cls-3, .cls-4 {
        fill: #231f20;
      }

      .cls-2, .cls-4 {
        font-size: 24px;
      }

      .cls-5 {
        fill: #efe8ea;
      }

      .cls-5, .cls-6, .cls-7 {
        stroke: #231f20;
        stroke-miterlimit: 10;
      }

      .cls-3 {
        stroke-width: 0px;
      }

      .cls-4 {
        font-family: MyriadPro-Regular, 'Myriad Pro';
      }

      .cls-6 {
        stroke-width: 7px;
      }

      .cls-6, .cls-7 {
        fill: none;
      }

      .cls-7 {
        stroke-dasharray: 0 0 0 0 1.99 1.99 1.99 1.99;
      }
    </style>
  </defs>
  <circle class="cls-7" cx="558.64" cy="378.79" r="207"/>
  <path class="cls-5" d="M557.76,100.16c15.08,4.3,24.21,19.85,20.39,34.73s-19.15,23.44-34.23,19.14c-15.08-4.3-24.21-19.85-20.39-34.73,3.82-14.88,19.15-23.44,34.23-19.14Z"/>
  <path class="cls-5" d="M418.56,137.94c15.21-3.81,30.89,5.09,35.02,19.88s-4.86,29.88-20.08,33.69c-15.21,3.81-30.89-5.09-35.02-19.88-4.13-14.79,4.86-29.88,20.08-33.69Z"/>
  <path class="cls-5" d="M316.9,240.25c11.27-10.91,29.3-11.04,40.27-.29,10.97,10.75,10.73,28.31-.54,39.22-11.27,10.91-29.3,11.04-40.27.29-10.97-10.75-10.73-28.31.54-39.22Z"/>
  <path class="cls-5" d="M280.02,379.68c4.3-15.08,19.85-24.21,34.73-20.39,14.88,3.82,23.44,19.15,19.14,34.23-4.3,15.08-19.85,24.21-34.73,20.39-14.88-3.82-23.44-19.15-19.14-34.23Z"/>
  <path class="cls-5" d="M317.79,518.87c-3.81-15.21,5.09-30.89,19.88-35.02,14.79-4.13,29.88,4.86,33.69,20.08,3.81,15.21-5.09,30.89-19.88,35.02-14.79,4.13-29.88-4.86-33.69-20.08Z"/>
  <path class="cls-5" d="M420.1,620.53c-10.91-11.27-11.04-29.3-.29-40.27,10.75-10.97,28.31-10.73,39.22.54,10.91,11.27,11.04,29.3.29,40.27-10.75,10.97-28.31,10.73-39.22-.54Z"/>
  <path class="cls-5" d="M559.53,657.42c-15.08-4.3-24.21-19.85-20.39-34.73,3.82-14.88,19.15-23.44,34.23-19.14,15.08,4.3,24.21,19.85,20.39,34.73-3.82,14.88-19.15,23.44-34.23,19.14Z"/>
  <path class="cls-5" d="M698.72,619.64c-15.21,3.81-30.89-5.09-35.02-19.88s4.86-29.88,20.08-33.69c15.21-3.81,30.89,5.09,35.02,19.88,4.13,14.79-4.86,29.88-20.08,33.69Z"/>
  <path class="cls-5" d="M800.38,517.34c-11.27,10.91-29.3,11.04-40.27.29-10.97-10.75-10.73-28.31.54-39.22,11.27-10.91,29.3-11.04,40.27-.29,10.97,10.75,10.73,28.31-.54,39.22Z"/>
  <path class="cls-5" d="M837.27,377.9c-4.3,15.08-19.85,24.21-34.73,20.39s-23.44-19.15-19.14-34.23c4.3-15.08,19.85-24.21,34.73-20.39,14.88,3.82,23.44,19.15,19.14,34.23Z"/>
  <path class="cls-5" d="M799.5,238.71c3.81,15.21-5.09,30.89-19.88,35.02s-29.88-4.86-33.69-20.08c-3.81-15.21,5.09-30.89,19.88-35.02,14.79-4.13,29.88,4.86,33.69,20.08Z"/>
  <path class="cls-5" d="M697.19,137.05c10.91,11.27,11.04,29.3.29,40.27-10.75,10.97-28.31,10.73-39.22-.54-10.91-11.27-11.04-29.3-.29-40.27,10.75-10.97,28.31-10.73,39.22.54Z"/>
  <text class="cls-1" transform="translate(780.52 684.24) scale(.99 1)"><tspan x="0" y="0">First arriving </tspan><tspan x="0" y="33.6">visitor</tspan></text>
  <text class="cls-4" transform="translate(524.88 90.63)"><tspan x="0" y="0">Akim</tspan></text>
  <text class="cls-4" transform="translate(719.8 163.96)"><tspan x="0" y="0">Chantal</tspan></text>
  <text class="cls-4" transform="translate(809 253.22)"><tspan x="0" y="0">Sami</tspan></text>
  <text class="cls-4" transform="translate(848.08 378.02)"><tspan x="0" y="0">Hilson</tspan></text>
  <text class="cls-4" transform="translate(816.88 504.92)"><tspan x="0" y="0">Fatou</tspan></text>
  <text class="cls-4" transform="translate(328 164.72)"><tspan x="0" y="0">Lane</tspan></text>
  <text class="cls-4" transform="translate(538.89 684.24)"><tspan x="0" y="0">Ryan</tspan></text>
  <text class="cls-4" transform="translate(354.25 607.71)"><tspan x="0" y="0">Theo</tspan></text>
  <text class="cls-4" transform="translate(269.95 519.45)"><tspan x="0" y="0">Eva</tspan></text>
  <text class="cls-4" transform="translate(186.49 393.65)"><tspan x="0" y="0">Damian</tspan></text>
  <text class="cls-4" transform="translate(241.5 266.75)"><tspan x="0" y="0">Annie</tspan></text>
  <g>
    <line class="cls-6" x1="725.25" y1="636.15" x2="760.47" y2="685.29"/>
    <polygon class="cls-3" points="720.82 650.45 727.56 639.38 740.21 636.55 714.05 620.53 720.82 650.45"/>
  </g>
  <text class="cls-2" transform="translate(684.37 599.87)"><tspan x="0" y="0">1</tspan></text>
</svg>